ISO-10303-21;
HEADER;
FILE_DESCRIPTION (( 'STEP AP214' ),
    '1' );
FILE_NAME ('am-4592 Sushi Roller 5mm Hex Bore.STEP',
    '2021-05-26T14:33:55',
    ( '' ),
    ( '' ),
    'SwSTEP 2.0',
    'SolidWorks 2019',
    '' );
FILE_SCHEMA (( 'AUTOMOTIVE_DESIGN' ));
ENDSEC;

DATA;
#1 = SURFACE_STYLE_FILL_AREA ( #176 ) ;
#2 = ADVANCED_FACE ( 'NONE', ( #753, #573 ), #707, .T. ) ;
#3 = ORIENTED_EDGE ( 'NONE', *, *, #249, .T. ) ;
#4 = PRESENTATION_STYLE_ASSIGNMENT (( #462 ) ) ;
#5 = DIRECTION ( 'NONE',  ( -1.000000000000000000, 0.000000000000000000, 0.000000000000000000 ) ) ;
#6 = LENGTH_MEASURE_WITH_UNIT ( LENGTH_MEASURE( 0.02539999999999999897 ), #507 );
#7 = ORIENTED_EDGE ( 'NONE', *, *, #761, .T. ) ;
#8 = AXIS2_PLACEMENT_3D ( 'NONE', #554, #285, #167 ) ;
#9 = VERTEX_POINT ( 'NONE', #441 ) ;
#10 = VECTOR ( 'NONE', #142, 39.37007874015748143 ) ;
#11 = MECHANICAL_DESIGN_GEOMETRIC_PRESENTATION_REPRESENTATION (  '', ( #99 ), #489 ) ;
#12 = DIRECTION ( 'NONE',  ( -0.000000000000000000, -0.000000000000000000, 1.000000000000000000 ) ) ;
#13 = FACE_OUTER_BOUND ( 'NONE', #494, .T. ) ;
#14 = VERTEX_POINT ( 'NONE', #518 ) ;
#15 = FILL_AREA_STYLE_COLOUR ( '', #273 ) ;
#16 =( NAMED_UNIT ( * ) SI_UNIT ( $, .STERADIAN. ) SOLID_ANGLE_UNIT ( ) );
#17 =( CONVERSION_BASED_UNIT ( 'INCH', #538 ) LENGTH_UNIT ( ) NAMED_UNIT ( #680 ) );
#18 = EDGE_LOOP ( 'NONE', ( #476, #55, #7, #607 ) ) ;
#19 = EDGE_CURVE ( 'NONE', #9, #340, #543, .T. ) ;
#20 = CARTESIAN_POINT ( 'NONE',  ( -4.770676503729919027, 0.09770214371047329649, 2.914161157578004868 ) ) ;
#21 =( LENGTH_UNIT ( ) NAMED_UNIT ( * ) SI_UNIT ( $, .METRE. ) );
#22 = CARTESIAN_POINT ( 'NONE',  ( -4.713850689833302354, 0.1961273405608668918, 2.914161157578004868 ) ) ;
#23 =( GEOMETRIC_REPRESENTATION_CONTEXT ( 3 ) GLOBAL_UNCERTAINTY_ASSIGNED_CONTEXT ( ( #31 ) ) GLOBAL_UNIT_ASSIGNED_CONTEXT ( ( #267, #399, #342 ) ) REPRESENTATION_CONTEXT ( 'NONE', 'WORKASPACE' ) );
#24 = EDGE_LOOP ( 'NONE', ( #568, #212 ) ) ;
#25 =( GEOMETRIC_REPRESENTATION_CONTEXT ( 3 ) GLOBAL_UNCERTAINTY_ASSIGNED_CONTEXT ( ( #120 ) ) GLOBAL_UNIT_ASSIGNED_CONTEXT ( ( #17, #780, #82 ) ) REPRESENTATION_CONTEXT ( 'NONE', 'WORKASPACE' ) );
#26 = PRESENTATION_LAYER_ASSIGNMENT (  '', '', ( #475 ) ) ;
#27 = VECTOR ( 'NONE', #42, 39.37007874015748143 ) ;
#28 = CYLINDRICAL_SURFACE ( 'NONE', #673, 0.5000000000000000000 ) ;
#29 = LINE ( 'NONE', #663, #548 ) ;
#30 = ORIENTED_EDGE ( 'NONE', *, *, #385, .F. ) ;
#31 = UNCERTAINTY_MEASURE_WITH_UNIT (LENGTH_MEASURE( 1.000000000000000082E-05 ), #267, 'distance_accuracy_value', 'NONE');
#32 = DIRECTION ( 'NONE',  ( -0.000000000000000000, -0.000000000000000000, 1.000000000000000000 ) ) ;
#33 = DIRECTION ( 'NONE',  ( 1.000000000000000000, 3.004629197474316090E-16, 0.000000000000000000 ) ) ;
#34 = VERTEX_POINT ( 'NONE', #527 ) ;
#35 = EDGE_CURVE ( 'NONE', #787, #245, #633, .T. ) ;
#36 = CARTESIAN_POINT ( 'NONE',  ( -4.827502317626535699, 0.1961273405608669196, 1.914161157578005312 ) ) ;
#37 = COLOUR_RGB ( '',0.2509803921568627416, 0.2509803921568627416, 0.2509803921568627416 ) ;
#38 = DIRECTION ( 'NONE',  ( 0.5000000000000001110, -0.8660254037844384856, 0.000000000000000000 ) ) ;
#39 = UNCERTAINTY_MEASURE_WITH_UNIT (LENGTH_MEASURE( 1.000000000000000082E-05 ), #609, 'distance_accuracy_value', 'NONE');
#40 = AXIS2_PLACEMENT_3D ( 'NONE', #223, #356, #229 ) ;
#41 = ADVANCED_FACE ( 'NONE', ( #654 ), #28, .T. ) ;
#42 = DIRECTION ( 'NONE',  ( -0.000000000000000000, -0.000000000000000000, -1.000000000000000000 ) ) ;
#43 = FILL_AREA_STYLE_COLOUR ( '', #547 ) ;
#44 = FACE_OUTER_BOUND ( 'NONE', #83, .T. ) ;
#45 = EDGE_LOOP ( 'NONE', ( #309, #446, #172, #429 ) ) ;
#46 =( GEOMETRIC_REPRESENTATION_CONTEXT ( 3 ) GLOBAL_UNCERTAINTY_ASSIGNED_CONTEXT ( ( #64 ) ) GLOBAL_UNIT_ASSIGNED_CONTEXT ( ( #256, #632, #59 ) ) REPRESENTATION_CONTEXT ( 'NONE', 'WORKASPACE' ) );
#47 =( NAMED_UNIT ( * ) PLANE_ANGLE_UNIT ( ) SI_UNIT ( $, .RADIAN. ) );
#48 = CARTESIAN_POINT ( 'NONE',  ( -4.827502317626535699, 0.1961273405608669196, 2.914161157578004868 ) ) ;
#49 =( GEOMETRIC_REPRESENTATION_CONTEXT ( 3 ) GLOBAL_UNCERTAINTY_ASSIGNED_CONTEXT ( ( #275 ) ) GLOBAL_UNIT_ASSIGNED_CONTEXT ( ( #181, #700, #515 ) ) REPRESENTATION_CONTEXT ( 'NONE', 'WORKASPACE' ) );
#50 = ORIENTED_EDGE ( 'NONE', *, *, #743, .T. ) ;
#51 = CIRCLE ( 'NONE', #704, 0.3937007874015746034 ) ;
#52 = COLOUR_RGB ( '',0.000000000000000000, 1.000000000000000000, 0.000000000000000000 ) ;
#53 = CARTESIAN_POINT ( 'NONE',  ( -4.884328131523152372, 0.09770214371047326873, 2.914161157578004868 ) ) ;
#54 = CARTESIAN_POINT ( 'NONE',  ( -4.827502317626535699, 0.1961273405608669196, 1.914161157578004868 ) ) ;
#55 = ORIENTED_EDGE ( 'NONE', *, *, #208, .T. ) ;
#56 = EDGE_CURVE ( 'NONE', #370, #9, #725, .T. ) ;
#57 = SURFACE_STYLE_FILL_AREA ( #577 ) ;
#58 = LENGTH_MEASURE_WITH_UNIT ( LENGTH_MEASURE( 0.02539999999999999897 ), #506 );
#59 =( NAMED_UNIT ( * ) SI_UNIT ( $, .STERADIAN. ) SOLID_ANGLE_UNIT ( ) );
#60 = AXIS2_PLACEMENT_3D ( 'NONE', #351, #666, #485 ) ;
#61 = LINE ( 'NONE', #379, #270 ) ;
#62 = LINE ( 'NONE', #811, #97 ) ;
#63 = DIRECTION ( 'NONE',  ( -0.000000000000000000, -0.000000000000000000, -1.000000000000000000 ) ) ;
#64 = UNCERTAINTY_MEASURE_WITH_UNIT (LENGTH_MEASURE( 1.000000000000000082E-05 ), #256, 'distance_accuracy_value', 'NONE');
#65 = ORIENTED_EDGE ( 'NONE', *, *, #435, .F. ) ;
#66 = DIRECTION ( 'NONE',  ( -0.5000000000000001110, -0.8660254037844384856, 0.000000000000000000 ) ) ;
#67 = CARTESIAN_POINT ( 'NONE',  ( -4.884328131523152372, 0.09770214371047326873, 2.914161157578004868 ) ) ;
#68 = SURFACE_STYLE_USAGE ( .BOTH. , #467 ) ;
#69 = CIRCLE ( 'NONE', #574, 0.3937007874015747699 ) ;
#70 = MECHANICAL_DESIGN_GEOMETRIC_PRESENTATION_REPRESENTATION (  '', ( #691 ), #591 ) ;
#71 = VECTOR ( 'NONE', #406, 39.37007874015748854 ) ;
#72 = VECTOR ( 'NONE', #38, 39.37007874015748854 ) ;
#73 = PRESENTATION_STYLE_ASSIGNMENT (( #407 ) ) ;
#74 = CARTESIAN_POINT ( 'NONE',  ( -4.827502317626535699, 0.1961273405608669196, 1.914161157578004868 ) ) ;
#75 = VERTEX_POINT ( 'NONE', #214 ) ;
#76 =( LENGTH_UNIT ( ) NAMED_UNIT ( * ) SI_UNIT ( $, .METRE. ) );
#77 = CARTESIAN_POINT ( 'NONE',  ( -4.827502317626535699, 0.1961273405608669196, 1.914161157578005312 ) ) ;
#78 = VERTEX_POINT ( 'NONE', #202 ) ;
#79 = CARTESIAN_POINT ( 'NONE',  ( -4.827502317626535699, 0.1961273405608669196, 2.914161157578004868 ) ) ;
#80 = CARTESIAN_POINT ( 'NONE',  ( -4.770676503729919027, 0.09770214371047329649, 2.914161157578004868 ) ) ;
#81 = DIMENSIONAL_EXPONENTS ( 1.000000000000000000, 0.000000000000000000, 0.000000000000000000, 0.000000000000000000, 0.000000000000000000, 0.000000000000000000, 0.000000000000000000 ) ;
#82 =( NAMED_UNIT ( * ) SI_UNIT ( $, .STERADIAN. ) SOLID_ANGLE_UNIT ( ) );
#83 = EDGE_LOOP ( 'NONE', ( #620, #812, #562, #272 ) ) ;
#84 = MECHANICAL_DESIGN_GEOMETRIC_PRESENTATION_REPRESENTATION (  '', ( #377 ), #25 ) ;
#85 = AXIS2_PLACEMENT_3D ( 'NONE', #682, #107, #619 ) ;
#86 = FILL_AREA_STYLE ('',( #783 ) ) ;
#87 = EDGE_CURVE ( 'NONE', #245, #787, #69, .T. ) ;
#88 = DIRECTION ( 'NONE',  ( -0.000000000000000000, -0.000000000000000000, -1.000000000000000000 ) ) ;
#89 = EDGE_LOOP ( 'NONE', ( #434, #304, #129, #593, #262, #723 ) ) ;
#90 = DIRECTION ( 'NONE',  ( -0.000000000000000000, -0.000000000000000000, -1.000000000000000000 ) ) ;
#91 = DIRECTION ( 'NONE',  ( -0.000000000000000000, -0.000000000000000000, -1.000000000000000000 ) ) ;
#92 =( CONVERSION_BASED_UNIT ( 'INCH', #225 ) LENGTH_UNIT ( ) NAMED_UNIT ( #737 ) );
#93 =( CONVERSION_BASED_UNIT ( 'INCH', #425 ) LENGTH_UNIT ( ) NAMED_UNIT ( #215 ) );
#94 = SURFACE_STYLE_FILL_AREA ( #415 ) ;
#95 = DIRECTION ( 'NONE',  ( 1.000000000000000000, 0.000000000000000000, -0.000000000000000000 ) ) ;
#96 = PRESENTATION_LAYER_ASSIGNMENT (  '', '', ( #377 ) ) ;
#97 = VECTOR ( 'NONE', #240, 39.37007874015748143 ) ;
#98 = DIRECTION ( 'NONE',  ( 0.000000000000000000, 1.000000000000000000, 0.000000000000000000 ) ) ;
#99 = STYLED_ITEM ( 'NONE', ( #414 ), #776 ) ;
#100 = SURFACE_SIDE_STYLE ('',( #412 ) ) ;
#101 = PRODUCT_DEFINITION_SHAPE ( 'NONE', 'NONE',  #671 ) ;
#102 = ADVANCED_FACE ( 'NONE', ( #597 ), #728, .T. ) ;
#103 = CARTESIAN_POINT ( 'NONE',  ( -4.827502317626535699, 0.5898281279624416618, 2.914161157578004868 ) ) ;
#104 = PLANE ( 'NONE',  #219 ) ;
#105 = EDGE_LOOP ( 'NONE', ( #138, #805 ) ) ;
#106 = DIRECTION ( 'NONE',  ( 0.000000000000000000, 0.000000000000000000, -1.000000000000000000 ) ) ;
#107 = DIRECTION ( 'NONE',  ( 0.000000000000000000, 0.000000000000000000, -1.000000000000000000 ) ) ;
#108 = ORIENTED_EDGE ( 'NONE', *, *, #298, .T. ) ;
#109 =( GEOMETRIC_REPRESENTATION_CONTEXT ( 3 ) GLOBAL_UNCERTAINTY_ASSIGNED_CONTEXT ( ( #349 ) ) GLOBAL_UNIT_ASSIGNED_CONTEXT ( ( #659, #649, #16 ) ) REPRESENTATION_CONTEXT ( 'NONE', 'WORKASPACE' ) );
#110 = CARTESIAN_POINT ( 'NONE',  ( -4.827502317626535699, 0.1961273405608669196, 1.914161157578004868 ) ) ;
#111 = SURFACE_SIDE_STYLE ('',( #1 ) ) ;
#112 = ORIENTED_EDGE ( 'NONE', *, *, #709, .T. ) ;
#113 = ADVANCED_FACE ( 'NONE', ( #221 ), #350, .T. ) ;
#114 = SURFACE_STYLE_FILL_AREA ( #762 ) ;
#115 = SURFACE_STYLE_USAGE ( .BOTH. , #175 ) ;
#116 = LENGTH_MEASURE_WITH_UNIT ( LENGTH_MEASURE( 0.02539999999999999897 ), #381 );
#117 = CARTESIAN_POINT ( 'NONE',  ( -4.827502317626535699, -0.1975734468407078226, 1.914161157578004868 ) ) ;
#118 = CARTESIAN_POINT ( 'NONE',  ( -4.884328131523152372, 0.2945525374112606398, 2.914161157578004868 ) ) ;
#119 = CARTESIAN_POINT ( 'NONE',  ( -4.884328131523152372, 0.2945525374112606398, 1.914161157578005312 ) ) ;
#120 = UNCERTAINTY_MEASURE_WITH_UNIT (LENGTH_MEASURE( 1.000000000000000082E-05 ), #17, 'distance_accuracy_value', 'NONE');
#121 = PRESENTATION_LAYER_ASSIGNMENT (  '', '', ( #487 ) ) ;
#122 = COLOUR_RGB ( '',0.2509803921568627416, 0.2509803921568627416, 0.2509803921568627416 ) ;
#123 = COLOUR_RGB ( '',0.7921568627450980005, 0.8196078431372548767, 0.9333333333333333481 ) ;
#124 = FACE_OUTER_BOUND ( 'NONE', #586, .T. ) ;
#125 = DIRECTION ( 'NONE',  ( -0.000000000000000000, -0.000000000000000000, 1.000000000000000000 ) ) ;
#126 =( LENGTH_UNIT ( ) NAMED_UNIT ( * ) SI_UNIT ( $, .METRE. ) );
#127 = DIRECTION ( 'NONE',  ( 1.000000000000000000, 0.000000000000000000, -0.000000000000000000 ) ) ;
#128 = APPLICATION_CONTEXT ( 'automotive_design' ) ;
#129 = ORIENTED_EDGE ( 'NONE', *, *, #578, .F. ) ;
#130 = CARTESIAN_POINT ( 'NONE',  ( -4.941153945419769045, 0.1961273405608669473, 2.914161157578004868 ) ) ;
#131 = ORIENTED_EDGE ( 'NONE', *, *, #347, .T. ) ;
#132 = PRESENTATION_STYLE_ASSIGNMENT (( #330 ) ) ;
#133 = LENGTH_MEASURE_WITH_UNIT ( LENGTH_MEASURE( 0.02539999999999999897 ), #76 );
#134 = LINE ( 'NONE', #790, #741 ) ;
#135 = AXIS2_PLACEMENT_3D ( 'NONE', #54, #307, #813 ) ;
#136 = EDGE_CURVE ( 'NONE', #363, #344, #287, .T. ) ;
#137 = MECHANICAL_DESIGN_GEOMETRIC_PRESENTATION_REPRESENTATION (  '', ( #549 ), #244 ) ;
#138 = ORIENTED_EDGE ( 'NONE', *, *, #35, .F. ) ;
#139 =( CONVERSION_BASED_UNIT ( 'INCH', #196 ) LENGTH_UNIT ( ) NAMED_UNIT ( #333 ) );
#140 = DIRECTION ( 'NONE',  ( -1.000000000000000000, 0.000000000000000000, 0.000000000000000000 ) ) ;
#141 = SURFACE_STYLE_USAGE ( .BOTH. , #544 ) ;
#142 = DIRECTION ( 'NONE',  ( -0.000000000000000000, -0.000000000000000000, -1.000000000000000000 ) ) ;
#143 = DIRECTION ( 'NONE',  ( -0.000000000000000000, -0.000000000000000000, -1.000000000000000000 ) ) ;
#144 = ORIENTED_EDGE ( 'NONE', *, *, #720, .F. ) ;
#145 = EDGE_CURVE ( 'NONE', #382, #536, #567, .T. ) ;
#146 =( CONVERSION_BASED_UNIT ( 'INCH', #585 ) LENGTH_UNIT ( ) NAMED_UNIT ( #81 ) );
#147 = UNCERTAINTY_MEASURE_WITH_UNIT (LENGTH_MEASURE( 1.000000000000000082E-05 ), #92, 'distance_accuracy_value', 'NONE');
#148 = DIRECTION ( 'NONE',  ( 0.000000000000000000, 0.000000000000000000, -1.000000000000000000 ) ) ;
#149 = VERTEX_POINT ( 'NONE', #103 ) ;
#150 = DIMENSIONAL_EXPONENTS ( 1.000000000000000000, 0.000000000000000000, 0.000000000000000000, 0.000000000000000000, 0.000000000000000000, 0.000000000000000000, 0.000000000000000000 ) ;
#151 = VECTOR ( 'NONE', #90, 39.37007874015748143 ) ;
#152 = LINE ( 'NONE', #665, #151 ) ;
#153 = SURFACE_STYLE_FILL_AREA ( #453 ) ;
#154 =( NAMED_UNIT ( * ) SI_UNIT ( $, .STERADIAN. ) SOLID_ANGLE_UNIT ( ) );
#155 = ORIENTED_EDGE ( 'NONE', *, *, #469, .F. ) ;
#156 = SURFACE_STYLE_USAGE ( .BOTH. , #739 ) ;
#157 = DIMENSIONAL_EXPONENTS ( 1.000000000000000000, 0.000000000000000000, 0.000000000000000000, 0.000000000000000000, 0.000000000000000000, 0.000000000000000000, 0.000000000000000000 ) ;
#158 = CARTESIAN_POINT ( 'NONE',  ( -4.713850689833302354, 0.1961273405608668918, 2.914161157578004868 ) ) ;
#159 =( NAMED_UNIT ( * ) PLANE_ANGLE_UNIT ( ) SI_UNIT ( $, .RADIAN. ) );
#160 = LINE ( 'NONE', #490, #455 ) ;
#161 = PRESENTATION_STYLE_ASSIGNMENT (( #808 ) ) ;
#162 = FILL_AREA_STYLE_COLOUR ( '', #474 ) ;
#163 = AXIS2_PLACEMENT_3D ( 'NONE', #77, #786, #338 ) ;
#164 = DIRECTION ( 'NONE',  ( 0.000000000000000000, 1.000000000000000000, 0.000000000000000000 ) ) ;
#165 = LENGTH_MEASURE_WITH_UNIT ( LENGTH_MEASURE( 0.02539999999999999897 ), #557 );
#166 = FILL_AREA_STYLE ('',( #43 ) ) ;
#167 = DIRECTION ( 'NONE',  ( 1.000000000000000000, 1.502314598737159524E-16, 0.000000000000000000 ) ) ;
#168 = ORIENTED_EDGE ( 'NONE', *, *, #56, .F. ) ;
#169 = FILL_AREA_STYLE_COLOUR ( '', #602 ) ;
#170 = ADVANCED_FACE ( 'NONE', ( #803 ), #800, .T. ) ;
#171 = LENGTH_MEASURE_WITH_UNIT ( LENGTH_MEASURE( 0.02539999999999999897 ), #631 );
#172 = ORIENTED_EDGE ( 'NONE', *, *, #698, .T. ) ;
#173 = AXIS2_PLACEMENT_3D ( 'NONE', #110, #361, #295 ) ;
#174 = CYLINDRICAL_SURFACE ( 'NONE', #355, 0.3937007874015747699 ) ;
#175 = SURFACE_SIDE_STYLE ('',( #248 ) ) ;
#176 = FILL_AREA_STYLE ('',( #316 ) ) ;
#177 = SURFACE_SIDE_STYLE ('',( #511 ) ) ;
#178 = AXIS2_PLACEMENT_3D ( 'NONE', #20, #206, #721 ) ;
#179 = CIRCLE ( 'NONE', #757, 0.5000000000000000000 ) ;
#180 =( LENGTH_UNIT ( ) NAMED_UNIT ( * ) SI_UNIT ( $, .METRE. ) );
#181 =( CONVERSION_BASED_UNIT ( 'INCH', #58 ) LENGTH_UNIT ( ) NAMED_UNIT ( #672 ) );
#182 =( NAMED_UNIT ( * ) PLANE_ANGLE_UNIT ( ) SI_UNIT ( $, .RADIAN. ) );
#183 = EDGE_CURVE ( 'NONE', #787, #193, #695, .T. ) ;
#184 = FILL_AREA_STYLE_COLOUR ( '', #588 ) ;
#185 = ORIENTED_EDGE ( 'NONE', *, *, #601, .F. ) ;
#186 = PLANE ( 'NONE',  #299 ) ;
#187 = VECTOR ( 'NONE', #403, 39.37007874015748854 ) ;
#188 = SURFACE_STYLE_USAGE ( .BOTH. , #111 ) ;
#189 = EDGE_LOOP ( 'NONE', ( #318, #400, #241, #258 ) ) ;
#190 = AXIS2_PLACEMENT_3D ( 'NONE', #650, #594, #334 ) ;
#191 = STYLED_ITEM ( 'NONE', ( #132 ), #569 ) ;
#192 = MECHANICAL_DESIGN_GEOMETRIC_PRESENTATION_REPRESENTATION (  '', ( #566 ), #257 ) ;
#193 = VERTEX_POINT ( 'NONE', #445 ) ;
#194 =( NAMED_UNIT ( * ) PLANE_ANGLE_UNIT ( ) SI_UNIT ( $, .RADIAN. ) );
#195 = DIRECTION ( 'NONE',  ( 1.000000000000000000, 3.004629197474316090E-16, 0.000000000000000000 ) ) ;
#196 = LENGTH_MEASURE_WITH_UNIT ( LENGTH_MEASURE( 0.02539999999999999897 ), #781 );
#197 = ADVANCED_FACE ( 'NONE', ( #630 ), #186, .T. ) ;
#198 = CARTESIAN_POINT ( 'NONE',  ( -5.221203105028110691, 0.1961273405608669196, 1.914161157578005312 ) ) ;
#199 = UNCERTAINTY_MEASURE_WITH_UNIT (LENGTH_MEASURE( 1.000000000000000082E-05 ), #209, 'distance_accuracy_value', 'NONE');
#200 = FILL_AREA_STYLE_COLOUR ( '', #623 ) ;
#201 = EDGE_LOOP ( 'NONE', ( #746, #667, #3, #689 ) ) ;
#202 = CARTESIAN_POINT ( 'NONE',  ( -4.941153945419769045, 0.1961273405608669473, 1.914161157578005312 ) ) ;
#203 = CLOSED_SHELL ( 'NONE', ( #373, #41, #235, #624, #102, #814 ) ) ;
#204 = CARTESIAN_POINT ( 'NONE',  ( -4.770676503729919027, 0.09770214371047329649, 2.914161157578004868 ) ) ;
#205 = VECTOR ( 'NONE', #774, 39.37007874015748143 ) ;
#206 = DIRECTION ( 'NONE',  ( -0.8660254037844385966, 0.5000000000000002220, 0.000000000000000000 ) ) ;
#207 = UNCERTAINTY_MEASURE_WITH_UNIT (LENGTH_MEASURE( 1.000000000000000082E-05 ), #428, 'distance_accuracy_value', 'NONE');
#208 = EDGE_CURVE ( 'NONE', #14, #344, #61, .T. ) ;
#209 =( CONVERSION_BASED_UNIT ( 'INCH', #583 ) LENGTH_UNIT ( ) NAMED_UNIT ( #661 ) );
#210 = CARTESIAN_POINT ( 'NONE',  ( -4.827502317626535699, 0.1961273405608669196, 1.914161157578004868 ) ) ;
#211 = SURFACE_STYLE_FILL_AREA ( #731 ) ;
#212 = ORIENTED_EDGE ( 'NONE', *, *, #422, .T. ) ;
#213 = CARTESIAN_POINT ( 'NONE',  ( -4.433801530224960707, 0.1961273405608669473, 1.914161157578005312 ) ) ;
#214 = CARTESIAN_POINT ( 'NONE',  ( -4.884328131523152372, 0.2945525374112606398, 2.914161157578004868 ) ) ;
#215 = DIMENSIONAL_EXPONENTS ( 1.000000000000000000, 0.000000000000000000, 0.000000000000000000, 0.000000000000000000, 0.000000000000000000, 0.000000000000000000, 0.000000000000000000 ) ;
#216 = DIRECTION ( 'NONE',  ( -0.000000000000000000, -0.000000000000000000, 1.000000000000000000 ) ) ;
#217 = ORIENTED_EDGE ( 'NONE', *, *, #183, .F. ) ;
#218 = COLOUR_RGB ( '',0.000000000000000000, 1.000000000000000000, 0.000000000000000000 ) ;
#219 = AXIS2_PLACEMENT_3D ( 'NONE', #36, #670, #95 ) ;
#220 = SURFACE_STYLE_FILL_AREA ( #648 ) ;
#221 = FACE_OUTER_BOUND ( 'NONE', #317, .T. ) ;
#222 = DIMENSIONAL_EXPONENTS ( 1.000000000000000000, 0.000000000000000000, 0.000000000000000000, 0.000000000000000000, 0.000000000000000000, 0.000000000000000000, 0.000000000000000000 ) ;
#223 = CARTESIAN_POINT ( 'NONE',  ( -4.827502317626535699, 0.1961273405608669196, 2.914161157578004868 ) ) ;
#224 = UNCERTAINTY_MEASURE_WITH_UNIT (LENGTH_MEASURE( 1.000000000000000082E-05 ), #239, 'distance_accuracy_value', 'NONE');
#225 = LENGTH_MEASURE_WITH_UNIT ( LENGTH_MEASURE( 0.02539999999999999897 ), #237 );
#226 = DIRECTION ( 'NONE',  ( 1.000000000000000000, 0.000000000000000000, 0.000000000000000000 ) ) ;
#227 = SURFACE_SIDE_STYLE ('',( #481 ) ) ;
#228 = VECTOR ( 'NONE', #66, 39.37007874015748854 ) ;
#229 = DIRECTION ( 'NONE',  ( 0.000000000000000000, 1.000000000000000000, 0.000000000000000000 ) ) ;
#230 = DIMENSIONAL_EXPONENTS ( 1.000000000000000000, 0.000000000000000000, 0.000000000000000000, 0.000000000000000000, 0.000000000000000000, 0.000000000000000000, 0.000000000000000000 ) ;
#231 = DIRECTION ( 'NONE',  ( 0.000000000000000000, 0.000000000000000000, -1.000000000000000000 ) ) ;
#232 =( GEOMETRIC_REPRESENTATION_CONTEXT ( 3 ) GLOBAL_UNCERTAINTY_ASSIGNED_CONTEXT ( ( #553 ) ) GLOBAL_UNIT_ASSIGNED_CONTEXT ( ( #438, #250, #393 ) ) REPRESENTATION_CONTEXT ( 'NONE', 'WORKASPACE' ) );
#233 = SURFACE_STYLE_USAGE ( .BOTH. , #804 ) ;
#234 = ORIENTED_EDGE ( 'NONE', *, *, #259, .F. ) ;
#235 = ADVANCED_FACE ( 'NONE', ( #763, #319 ), #584, .T. ) ;
#236 = DIRECTION ( 'NONE',  ( -0.5000000000000001110, 0.8660254037844384856, 0.000000000000000000 ) ) ;
#237 =( LENGTH_UNIT ( ) NAMED_UNIT ( * ) SI_UNIT ( $, .METRE. ) );
#238 = ORIENTED_EDGE ( 'NONE', *, *, #541, .T. ) ;
#239 =( CONVERSION_BASED_UNIT ( 'INCH', #439 ) LENGTH_UNIT ( ) NAMED_UNIT ( #558 ) );
#240 = DIRECTION ( 'NONE',  ( -1.000000000000000000, -1.502314598737159524E-16, 0.000000000000000000 ) ) ;
#241 = ORIENTED_EDGE ( 'NONE', *, *, #183, .T. ) ;
#242 = MECHANICAL_DESIGN_GEOMETRIC_PRESENTATION_REPRESENTATION (  '', ( #337 ), #109 ) ;
#243 = PRESENTATION_STYLE_ASSIGNMENT (( #699 ) ) ;
#244 =( GEOMETRIC_REPRESENTATION_CONTEXT ( 3 ) GLOBAL_UNCERTAINTY_ASSIGNED_CONTEXT ( ( #284 ) ) GLOBAL_UNIT_ASSIGNED_CONTEXT ( ( #815, #182, #308 ) ) REPRESENTATION_CONTEXT ( 'NONE', 'WORKASPACE' ) );
#245 = VERTEX_POINT ( 'NONE', #389 ) ;
#246 = VECTOR ( 'NONE', #423, 39.37007874015748143 ) ;
#247 = SURFACE_STYLE_USAGE ( .BOTH. , #306 ) ;
#248 = SURFACE_STYLE_FILL_AREA ( #432 ) ;
#249 = EDGE_CURVE ( 'NONE', #75, #34, #640, .T. ) ;
#250 =( NAMED_UNIT ( * ) PLANE_ANGLE_UNIT ( ) SI_UNIT ( $, .RADIAN. ) );
#251 =( NAMED_UNIT ( * ) PLANE_ANGLE_UNIT ( ) SI_UNIT ( $, .RADIAN. ) );
#252 = PRESENTATION_STYLE_ASSIGNMENT (( #188 ) ) ;
#253 = ORIENTED_EDGE ( 'NONE', *, *, #735, .F. ) ;
#254 = FILL_AREA_STYLE_COLOUR ( '', #756 ) ;
#255 = UNCERTAINTY_MEASURE_WITH_UNIT (LENGTH_MEASURE( 1.000000000000000082E-05 ), #93, 'distance_accuracy_value', 'NONE');
#256 =( CONVERSION_BASED_UNIT ( 'INCH', #116 ) LENGTH_UNIT ( ) NAMED_UNIT ( #733 ) );
#257 =( GEOMETRIC_REPRESENTATION_CONTEXT ( 3 ) GLOBAL_UNCERTAINTY_ASSIGNED_CONTEXT ( ( #533 ) ) GLOBAL_UNIT_ASSIGNED_CONTEXT ( ( #139, #519, #773 ) ) REPRESENTATION_CONTEXT ( 'NONE', 'WORKASPACE' ) );
#258 = ORIENTED_EDGE ( 'NONE', *, *, #347, .F. ) ;
#259 = EDGE_CURVE ( 'NONE', #34, #78, #322, .T. ) ;
#260 = FACE_BOUND ( 'NONE', #642, .T. ) ;
#261 = FACE_OUTER_BOUND ( 'NONE', #732, .T. ) ;
#262 = ORIENTED_EDGE ( 'NONE', *, *, #249, .F. ) ;
#263 = DIRECTION ( 'NONE',  ( 0.000000000000000000, -1.000000000000000000, 0.000000000000000000 ) ) ;
#264 = CARTESIAN_POINT ( 'NONE',  ( -5.221203105028110691, 0.1961273405608669196, 2.914161157578004868 ) ) ;
#265 = LINE ( 'NONE', #22, #531 ) ;
#266 = DIRECTION ( 'NONE',  ( 1.000000000000000000, 0.000000000000000000, 0.000000000000000000 ) ) ;
#267 =( CONVERSION_BASED_UNIT ( 'INCH', #471 ) LENGTH_UNIT ( ) NAMED_UNIT ( #230 ) );
#268 = CLOSED_SHELL ( 'NONE', ( #170, #2, #411, #525, #569, #443, #401, #197, #113, #792 ) ) ;
#269 = CARTESIAN_POINT ( 'NONE',  ( -4.827502317626535699, -0.3038726594391330527, 2.914161157578004868 ) ) ;
#270 = VECTOR ( 'NONE', #125, 39.37007874015748143 ) ;
#271 = CIRCLE ( 'NONE', #85, 0.3937007874015747699 ) ;
#272 = ORIENTED_EDGE ( 'NONE', *, *, #735, .T. ) ;
#273 = COLOUR_RGB ( '',0.7921568627450980005, 0.8196078431372548767, 0.9333333333333333481 ) ;
#274 =( LENGTH_UNIT ( ) NAMED_UNIT ( * ) SI_UNIT ( $, .METRE. ) );
#275 = UNCERTAINTY_MEASURE_WITH_UNIT (LENGTH_MEASURE( 1.000000000000000082E-05 ), #181, 'distance_accuracy_value', 'NONE');
#276 = FILL_AREA_STYLE_COLOUR ( '', #339 ) ;
#277 = ORIENTED_EDGE ( 'NONE', *, *, #456, .T. ) ;
#278 = CARTESIAN_POINT ( 'NONE',  ( -4.827502317626535699, 0.1961273405608669196, 2.914161157578004868 ) ) ;
#279 = CARTESIAN_POINT ( 'NONE',  ( -4.827502317626535699, 0.1961273405608669196, 1.914161157578004868 ) ) ;
#280 = SURFACE_STYLE_FILL_AREA ( #448 ) ;
#281 = DIMENSIONAL_EXPONENTS ( 1.000000000000000000, 0.000000000000000000, 0.000000000000000000, 0.000000000000000000, 0.000000000000000000, 0.000000000000000000, 0.000000000000000000 ) ;
#282 = ORIENTED_EDGE ( 'NONE', *, *, #770, .F. ) ;
#283 = CARTESIAN_POINT ( 'NONE',  ( -4.433801530224960707, 0.1961273405608669473, 2.914161157578004868 ) ) ;
#284 = UNCERTAINTY_MEASURE_WITH_UNIT (LENGTH_MEASURE( 1.000000000000000082E-05 ), #815, 'distance_accuracy_value', 'NONE');
#285 = DIRECTION ( 'NONE',  ( 1.502314598737159524E-16, -1.000000000000000000, 0.000000000000000000 ) ) ;
#286 = VECTOR ( 'NONE', #424, 39.37007874015748854 ) ;
#287 = CIRCLE ( 'NONE', #754, 0.5000000000000000000 ) ;
#288 = CIRCLE ( 'NONE', #703, 0.5000000000000000000 ) ;
#289 = DIMENSIONAL_EXPONENTS ( 1.000000000000000000, 0.000000000000000000, 0.000000000000000000, 0.000000000000000000, 0.000000000000000000, 0.000000000000000000, 0.000000000000000000 ) ;
#290 = EDGE_CURVE ( 'NONE', #382, #340, #265, .T. ) ;
#291 = STYLED_ITEM ( 'NONE', ( #243 ), #814 ) ;
#292 = PRESENTATION_STYLE_ASSIGNMENT (( #681 ) ) ;
#293 = PLANE ( 'NONE',  #397 ) ;
#294 = LINE ( 'NONE', #546, #782 ) ;
#295 = DIRECTION ( 'NONE',  ( 0.000000000000000000, -1.000000000000000000, 0.000000000000000000 ) ) ;
#296 = PLANE ( 'NONE',  #677 ) ;
#297 = EDGE_LOOP ( 'NONE', ( #108, #410 ) ) ;
#298 = EDGE_CURVE ( 'NONE', #627, #14, #288, .T. ) ;
#299 = AXIS2_PLACEMENT_3D ( 'NONE', #118, #374, #819 ) ;
#300 = LENGTH_MEASURE_WITH_UNIT ( LENGTH_MEASURE( 0.02539999999999999897 ), #818 );
#301 = DIRECTION ( 'NONE',  ( 0.8660254037844385966, 0.5000000000000002220, -0.000000000000000000 ) ) ;
#302 = PRESENTATION_LAYER_ASSIGNMENT (  '', '', ( #433 ) ) ;
#303 = PRESENTATION_STYLE_ASSIGNMENT (( #359 ) ) ;
#304 = ORIENTED_EDGE ( 'NONE', *, *, #358, .F. ) ;
#305 = PRODUCT ( 'am-4592 Sushi Roller 5mm Hex Bore', 'am-4592 Sushi Roller 5mm Hex Bore', '', ( #329 ) ) ;
#306 = SURFACE_SIDE_STYLE ('',( #57 ) ) ;
#307 = DIRECTION ( 'NONE',  ( 0.000000000000000000, 0.000000000000000000, -1.000000000000000000 ) ) ;
#308 =( NAMED_UNIT ( * ) SI_UNIT ( $, .STERADIAN. ) SOLID_ANGLE_UNIT ( ) );
#309 = ORIENTED_EDGE ( 'NONE', *, *, #208, .F. ) ;
#310 = SURFACE_STYLE_FILL_AREA ( #369 ) ;
#311 = PRESENTATION_LAYER_ASSIGNMENT (  '', '', ( #514 ) ) ;
#312 =( NAMED_UNIT ( * ) SI_UNIT ( $, .STERADIAN. ) SOLID_ANGLE_UNIT ( ) );
#313 = EDGE_CURVE ( 'NONE', #324, #9, #404, .T. ) ;
#314 = LENGTH_MEASURE_WITH_UNIT ( LENGTH_MEASURE( 0.02539999999999999897 ), #180 );
#315 = PRESENTATION_STYLE_ASSIGNMENT (( #497 ) ) ;
#316 = FILL_AREA_STYLE_COLOUR ( '', #692 ) ;
#317 = EDGE_LOOP ( 'NONE', ( #637, #234, #768, #413 ) ) ;
#318 = ORIENTED_EDGE ( 'NONE', *, *, #709, .F. ) ;
#319 = FACE_BOUND ( 'NONE', #105, .T. ) ;
#320 = DIRECTION ( 'NONE',  ( 1.000000000000000000, 0.000000000000000000, 0.000000000000000000 ) ) ;
#321 = EDGE_CURVE ( 'NONE', #340, #696, #29, .T. ) ;
#322 = LINE ( 'NONE', #130, #395 ) ;
#323 = CARTESIAN_POINT ( 'NONE',  ( -4.884328131523152372, 0.09770214371047326873, 2.914161157578004868 ) ) ;
#324 = VERTEX_POINT ( 'NONE', #655 ) ;
#325 = STYLED_ITEM ( 'NONE', ( #758 ), #197 ) ;
#326 = STYLED_ITEM ( 'NONE', ( #749 ), #495 ) ;
#327 = PRESENTATION_STYLE_ASSIGNMENT (( #68 ) ) ;
#328 = EDGE_LOOP ( 'NONE', ( #512, #112, #65, #217 ) ) ;
#329 = PRODUCT_CONTEXT ( 'NONE', #657, 'mechanical' ) ;
#330 = SURFACE_STYLE_USAGE ( .BOTH. , #402 ) ;
#331 =( NAMED_UNIT ( * ) PLANE_ANGLE_UNIT ( ) SI_UNIT ( $, .RADIAN. ) );
#332 = CARTESIAN_POINT ( 'NONE',  ( -4.827502317626535699, 0.1961273405608669196, 1.914161157578004868 ) ) ;
#333 = DIMENSIONAL_EXPONENTS ( 1.000000000000000000, 0.000000000000000000, 0.000000000000000000, 0.000000000000000000, 0.000000000000000000, 0.000000000000000000, 0.000000000000000000 ) ;
#334 = DIRECTION ( 'NONE',  ( 0.000000000000000000, 1.000000000000000000, 0.000000000000000000 ) ) ;
#335 = APPLICATION_PROTOCOL_DEFINITION ( 'draft international standard', 'automotive_design', 1998, #128 ) ;
#336 = FILL_AREA_STYLE ('',( #398 ) ) ;
#337 = STYLED_ITEM ( 'NONE', ( #73 ), #102 ) ;
#338 = DIRECTION ( 'NONE',  ( 1.000000000000000000, 0.000000000000000000, 0.000000000000000000 ) ) ;
#339 = COLOUR_RGB ( '',0.2509803921568627416, 0.2509803921568627416, 0.2509803921568627416 ) ;
#340 = VERTEX_POINT ( 'NONE', #343 ) ;
#341 =( GEOMETRIC_REPRESENTATION_CONTEXT ( 3 ) GLOBAL_UNCERTAINTY_ASSIGNED_CONTEXT ( ( #199 ) ) GLOBAL_UNIT_ASSIGNED_CONTEXT ( ( #209, #194, #449 ) ) REPRESENTATION_CONTEXT ( 'NONE', 'WORKASPACE' ) );
#342 =( NAMED_UNIT ( * ) SI_UNIT ( $, .STERADIAN. ) SOLID_ANGLE_UNIT ( ) );
#343 = CARTESIAN_POINT ( 'NONE',  ( -4.713850689833302354, 0.1961273405608668918, 1.914161157578005312 ) ) ;
#344 = VERTEX_POINT ( 'NONE', #775 ) ;
#345 = CARTESIAN_POINT ( 'NONE',  ( -4.941153945419769045, 0.1961273405608669473, 1.914161157578005312 ) ) ;
#346 = PRESENTATION_STYLE_ASSIGNMENT (( #785 ) ) ;
#347 = EDGE_CURVE ( 'NONE', #149, #193, #717, .T. ) ;
#348 = DIRECTION ( 'NONE',  ( 0.000000000000000000, 0.000000000000000000, 1.000000000000000000 ) ) ;
#349 = UNCERTAINTY_MEASURE_WITH_UNIT (LENGTH_MEASURE( 1.000000000000000082E-05 ), #659, 'distance_accuracy_value', 'NONE');
#350 = PLANE ( 'NONE',  #352 ) ;
#351 = CARTESIAN_POINT ( 'NONE',  ( -4.827502317626535699, 0.1961273405608669196, 2.914161157578004868 ) ) ;
#352 = AXIS2_PLACEMENT_3D ( 'NONE', #560, #301, #236 ) ;
#353 = PRESENTATION_LAYER_ASSIGNMENT (  '', '', ( #325 ) ) ;
#354 =( GEOMETRIC_REPRESENTATION_CONTEXT ( 3 ) GLOBAL_UNCERTAINTY_ASSIGNED_CONTEXT ( ( #521 ) ) GLOBAL_UNIT_ASSIGNED_CONTEXT ( ( #146, #331, #452 ) ) REPRESENTATION_CONTEXT ( 'NONE', 'WORKASPACE' ) );
#355 = AXIS2_PLACEMENT_3D ( 'NONE', #524, #12, #263 ) ;
#356 = DIRECTION ( 'NONE',  ( 0.000000000000000000, 0.000000000000000000, -1.000000000000000000 ) ) ;
#357 = CARTESIAN_POINT ( 'NONE',  ( -4.827502317626535699, 0.1961273405608669196, 2.914161157578004868 ) ) ;
#358 = EDGE_CURVE ( 'NONE', #370, #382, #134, .T. ) ;
#359 = SURFACE_STYLE_USAGE ( .BOTH. , #100 ) ;
#360 = ORIENTED_EDGE ( 'NONE', *, *, #422, .F. ) ;
#361 = DIRECTION ( 'NONE',  ( -0.000000000000000000, -0.000000000000000000, 1.000000000000000000 ) ) ;
#362 = PRESENTATION_STYLE_ASSIGNMENT (( #233 ) ) ;
#363 = VERTEX_POINT ( 'NONE', #269 ) ;
#364 =( GEOMETRIC_REPRESENTATION_CONTEXT ( 3 ) GLOBAL_UNCERTAINTY_ASSIGNED_CONTEXT ( ( #147 ) ) GLOBAL_UNIT_ASSIGNED_CONTEXT ( ( #92, #159, #482 ) ) REPRESENTATION_CONTEXT ( 'NONE', 'WORKASPACE' ) );
#365 = VECTOR ( 'NONE', #195, 39.37007874015748143 ) ;
#366 = DIRECTION ( 'NONE',  ( -1.000000000000000000, -3.004629197474316090E-16, 0.000000000000000000 ) ) ;
#367 =( NAMED_UNIT ( * ) SI_UNIT ( $, .STERADIAN. ) SOLID_ANGLE_UNIT ( ) );
#368 = AXIS2_PLACEMENT_3D ( 'NONE', #278, #348, #226 ) ;
#369 = FILL_AREA_STYLE ('',( #254 ) ) ;
#370 = VERTEX_POINT ( 'NONE', #204 ) ;
#371 =( CONVERSION_BASED_UNIT ( 'INCH', #171 ) LENGTH_UNIT ( ) NAMED_UNIT ( #150 ) );
#372 = ORIENTED_EDGE ( 'NONE', *, *, #435, .T. ) ;
#373 = ADVANCED_FACE ( 'NONE', ( #396 ), #722, .F. ) ;
#374 = DIRECTION ( 'NONE',  ( 0.8660254037844385966, -0.5000000000000002220, 0.000000000000000000 ) ) ;
#375 =( NAMED_UNIT ( * ) PLANE_ANGLE_UNIT ( ) SI_UNIT ( $, .RADIAN. ) );
#376 = PRESENTATION_LAYER_ASSIGNMENT (  '', '', ( #513 ) ) ;
#377 = STYLED_ITEM ( 'NONE', ( #714 ), #373 ) ;
#378 =( NAMED_UNIT ( * ) PLANE_ANGLE_UNIT ( ) SI_UNIT ( $, .RADIAN. ) );
#379 = CARTESIAN_POINT ( 'NONE',  ( -4.827502317626535699, 0.6961273405608668918, 1.914161157578004868 ) ) ;
#380 = FACE_OUTER_BOUND ( 'NONE', #468, .T. ) ;
#381 =( LENGTH_UNIT ( ) NAMED_UNIT ( * ) SI_UNIT ( $, .METRE. ) );
#382 = VERTEX_POINT ( 'NONE', #473 ) ;
#383 =( NAMED_UNIT ( * ) SI_UNIT ( $, .STERADIAN. ) SOLID_ANGLE_UNIT ( ) );
#384 =( LENGTH_UNIT ( ) NAMED_UNIT ( * ) SI_UNIT ( $, .METRE. ) );
#385 = EDGE_CURVE ( 'NONE', #545, #656, #755, .T. ) ;
#386 = CARTESIAN_POINT ( 'NONE',  ( -4.770676503729919027, 0.2945525374112606398, 2.914161157578004868 ) ) ;
#387 = ORIENTED_EDGE ( 'NONE', *, *, #685, .T. ) ;
#388 =( LENGTH_UNIT ( ) NAMED_UNIT ( * ) SI_UNIT ( $, .METRE. ) );
#389 = CARTESIAN_POINT ( 'NONE',  ( -4.827502317626535699, 0.5898281279624416618, 1.914161157578004868 ) ) ;
#390 = LINE ( 'NONE', #264, #205 ) ;
#391 = ORIENTED_EDGE ( 'NONE', *, *, #56, .T. ) ;
#392 = CARTESIAN_POINT ( 'NONE',  ( -4.884328131523152372, 0.09770214371047326873, 1.914161157578005312 ) ) ;
#393 =( NAMED_UNIT ( * ) SI_UNIT ( $, .STERADIAN. ) SOLID_ANGLE_UNIT ( ) );
#394 = VECTOR ( 'NONE', #91, 39.37007874015748143 ) ;
#395 = VECTOR ( 'NONE', #143, 39.37007874015748143 ) ;
#396 = FACE_OUTER_BOUND ( 'NONE', #328, .T. ) ;
#397 = AXIS2_PLACEMENT_3D ( 'NONE', #53, #496, #366 ) ;
#398 = FILL_AREA_STYLE_COLOUR ( '', #488 ) ;
#399 =( NAMED_UNIT ( * ) PLANE_ANGLE_UNIT ( ) SI_UNIT ( $, .RADIAN. ) );
#400 = ORIENTED_EDGE ( 'NONE', *, *, #87, .T. ) ;
#401 = ADVANCED_FACE ( 'NONE', ( #261 ), #603, .T. ) ;
#402 = SURFACE_SIDE_STYLE ('',( #651 ) ) ;
#403 = DIRECTION ( 'NONE',  ( 0.5000000000000001110, 0.8660254037844384856, 0.000000000000000000 ) ) ;
#404 = LINE ( 'NONE', #392, #793 ) ;
#405 = EDGE_LOOP ( 'NONE', ( #686, #708, #277, #50, #387, #636 ) ) ;
#406 = DIRECTION ( 'NONE',  ( 0.5000000000000001110, -0.8660254037844384856, 0.000000000000000000 ) ) ;
#407 = SURFACE_STYLE_USAGE ( .BOTH. , #719 ) ;
#408 = DIRECTION ( 'NONE',  ( -0.5000000000000002220, 0.8660254037844384856, 0.000000000000000000 ) ) ;
#409 = MECHANICAL_DESIGN_GEOMETRIC_PRESENTATION_REPRESENTATION (  '', ( #325 ), #49 ) ;
#410 = ORIENTED_EDGE ( 'NONE', *, *, #760, .T. ) ;
#411 = ADVANCED_FACE ( 'NONE', ( #426, #676 ), #104, .F. ) ;
#412 = SURFACE_STYLE_FILL_AREA ( #418 ) ;
#413 = ORIENTED_EDGE ( 'NONE', *, *, #601, .T. ) ;
#414 = PRESENTATION_STYLE_ASSIGNMENT (( #156 ) ) ;
#415 = FILL_AREA_STYLE ('',( #493 ) ) ;
#416 =( NAMED_UNIT ( * ) PLANE_ANGLE_UNIT ( ) SI_UNIT ( $, .RADIAN. ) );
#417 = DIRECTION ( 'NONE',  ( -0.5000000000000001110, -0.8660254037844384856, 0.000000000000000000 ) ) ;
#418 = FILL_AREA_STYLE ('',( #162 ) ) ;
#419 = AXIS2_PLACEMENT_3D ( 'NONE', #332, #779, #713 ) ;
#420 = COLOUR_RGB ( '',0.2509803921568627416, 0.2509803921568627416, 0.2509803921568627416 ) ;
#421 = PRESENTATION_LAYER_ASSIGNMENT (  '', '', ( #191 ) ) ;
#422 = EDGE_CURVE ( 'NONE', #664, #491, #500, .T. ) ;
#423 = DIRECTION ( 'NONE',  ( -0.000000000000000000, -0.000000000000000000, 1.000000000000000000 ) ) ;
#424 = DIRECTION ( 'NONE',  ( -0.5000000000000002220, 0.8660254037844384856, 0.000000000000000000 ) ) ;
#425 = LENGTH_MEASURE_WITH_UNIT ( LENGTH_MEASURE( 0.02539999999999999897 ), #668 );
#426 = FACE_OUTER_BOUND ( 'NONE', #622, .T. ) ;
#427 = VERTEX_POINT ( 'NONE', #613 ) ;
#428 =( CONVERSION_BASED_UNIT ( 'INCH', #612 ) LENGTH_UNIT ( ) NAMED_UNIT ( #157 ) );
#429 = ORIENTED_EDGE ( 'NONE', *, *, #136, .T. ) ;
#430 = STYLED_ITEM ( 'NONE', ( #710 ), #2 ) ;
#431 = PRESENTATION_LAYER_ASSIGNMENT (  '', '', ( #691 ) ) ;
#432 = FILL_AREA_STYLE ('',( #509 ) ) ;
#433 = STYLED_ITEM ( 'NONE', ( #505 ), #792 ) ;
#434 = ORIENTED_EDGE ( 'NONE', *, *, #145, .F. ) ;
#435 = EDGE_CURVE ( 'NONE', #193, #149, #271, .T. ) ;
#436 =( LENGTH_UNIT ( ) NAMED_UNIT ( * ) SI_UNIT ( $, .METRE. ) );
#437 = CARTESIAN_POINT ( 'NONE',  ( -4.827502317626535699, 0.1961273405608669196, 1.914161157578005312 ) ) ;
#438 =( CONVERSION_BASED_UNIT ( 'INCH', #314 ) LENGTH_UNIT ( ) NAMED_UNIT ( #281 ) );
#439 = LENGTH_MEASURE_WITH_UNIT ( LENGTH_MEASURE( 0.02539999999999999897 ), #384 );
#440 = LINE ( 'NONE', #386, #806 ) ;
#441 = CARTESIAN_POINT ( 'NONE',  ( -4.770676503729919027, 0.09770214371047329649, 1.914161157578005312 ) ) ;
#442 = PRESENTATION_LAYER_ASSIGNMENT (  '', '', ( #690 ) ) ;
#443 = ADVANCED_FACE ( 'NONE', ( #44 ), #296, .T. ) ;
#444 = MECHANICAL_DESIGN_GEOMETRIC_PRESENTATION_REPRESENTATION (  '', ( #514 ), #645 ) ;
#445 = CARTESIAN_POINT ( 'NONE',  ( -4.827502317626535699, -0.1975734468407078226, 2.914161157578004868 ) ) ;
#446 = ORIENTED_EDGE ( 'NONE', *, *, #298, .F. ) ;
#447 =( NAMED_UNIT ( * ) SI_UNIT ( $, .STERADIAN. ) SOLID_ANGLE_UNIT ( ) );
#448 = FILL_AREA_STYLE ('',( #606 ) ) ;
#449 =( NAMED_UNIT ( * ) SI_UNIT ( $, .STERADIAN. ) SOLID_ANGLE_UNIT ( ) );
#450 = PRESENTATION_LAYER_ASSIGNMENT (  '', '', ( #610 ) ) ;
#451 =( GEOMETRIC_REPRESENTATION_CONTEXT ( 3 ) GLOBAL_UNCERTAINTY_ASSIGNED_CONTEXT ( ( #207 ) ) GLOBAL_UNIT_ASSIGNED_CONTEXT ( ( #428, #675, #740 ) ) REPRESENTATION_CONTEXT ( 'NONE', 'WORKASPACE' ) );
#452 =( NAMED_UNIT ( * ) SI_UNIT ( $, .STERADIAN. ) SOLID_ANGLE_UNIT ( ) );
#453 = FILL_AREA_STYLE ('',( #200 ) ) ;
#454 = PRESENTATION_LAYER_ASSIGNMENT (  '', '', ( #549 ) ) ;
#455 = VECTOR ( 'NONE', #744, 39.37007874015748143 ) ;
#456 = EDGE_CURVE ( 'NONE', #696, #499, #62, .T. ) ;
#457 = DIMENSIONAL_EXPONENTS ( 1.000000000000000000, 0.000000000000000000, 0.000000000000000000, 0.000000000000000000, 0.000000000000000000, 0.000000000000000000, 0.000000000000000000 ) ;
#458 = SHAPE_DEFINITION_REPRESENTATION ( #101, #747 ) ;
#459 = DIRECTION ( 'NONE',  ( 0.000000000000000000, 1.000000000000000000, 0.000000000000000000 ) ) ;
#460 = CARTESIAN_POINT ( 'NONE',  ( -4.827502317626535699, 0.1961273405608669196, 1.914161157578004868 ) ) ;
#461 = EDGE_LOOP ( 'NONE', ( #791, #168, #529, #759 ) ) ;
#462 = SURFACE_STYLE_USAGE ( .BOTH. , #589 ) ;
#463 = DIRECTION ( 'NONE',  ( -0.000000000000000000, -0.000000000000000000, -1.000000000000000000 ) ) ;
#464 = UNCERTAINTY_MEASURE_WITH_UNIT (LENGTH_MEASURE( 1.000000000000000082E-05 ), #807, 'distance_accuracy_value', 'NONE');
#465 = DIRECTION ( 'NONE',  ( 0.000000000000000000, -1.000000000000000000, 0.000000000000000000 ) ) ;
#466 = DIMENSIONAL_EXPONENTS ( 1.000000000000000000, 0.000000000000000000, 0.000000000000000000, 0.000000000000000000, 0.000000000000000000, 0.000000000000000000, 0.000000000000000000 ) ;
#467 = SURFACE_SIDE_STYLE ('',( #211 ) ) ;
#468 = EDGE_LOOP ( 'NONE', ( #282, #144, #238, #727 ) ) ;
#469 = EDGE_CURVE ( 'NONE', #656, #545, #51, .T. ) ;
#470 = DIRECTION ( 'NONE',  ( 0.000000000000000000, 0.000000000000000000, -1.000000000000000000 ) ) ;
#471 = LENGTH_MEASURE_WITH_UNIT ( LENGTH_MEASURE( 0.02539999999999999897 ), #21 );
#472 = COLOUR_RGB ( '',0.2509803921568627416, 0.2509803921568627416, 0.2509803921568627416 ) ;
#473 = CARTESIAN_POINT ( 'NONE',  ( -4.713850689833302354, 0.1961273405608668918, 2.914161157578004868 ) ) ;
#474 = COLOUR_RGB ( '',0.2509803921568627416, 0.2509803921568627416, 0.2509803921568627416 ) ;
#475 = STYLED_ITEM ( 'NONE', ( #480 ), #624 ) ;
#476 = ORIENTED_EDGE ( 'NONE', *, *, #760, .F. ) ;
#477 = MECHANICAL_DESIGN_GEOMETRIC_PRESENTATION_REPRESENTATION (  '', ( #433 ), #614 ) ;
#478 = CARTESIAN_POINT ( 'NONE',  ( -4.884328131523152372, 0.2945525374112606398, 1.914161157578005312 ) ) ;
#479 =( LENGTH_UNIT ( ) NAMED_UNIT ( * ) SI_UNIT ( $, .METRE. ) );
#480 = PRESENTATION_STYLE_ASSIGNMENT (( #611 ) ) ;
#481 = SURFACE_STYLE_FILL_AREA ( #166 ) ;
#482 =( NAMED_UNIT ( * ) SI_UNIT ( $, .STERADIAN. ) SOLID_ANGLE_UNIT ( ) );
#483 = FILL_AREA_STYLE ('',( #608 ) ) ;
#484 =( CONVERSION_BASED_UNIT ( 'INCH', #618 ) LENGTH_UNIT ( ) NAMED_UNIT ( #552 ) );
#485 = DIRECTION ( 'NONE',  ( 1.000000000000000000, 0.000000000000000000, 0.000000000000000000 ) ) ;
#486 = MECHANICAL_DESIGN_GEOMETRIC_PRESENTATION_REPRESENTATION (  '', ( #513 ), #23 ) ;
#487 = STYLED_ITEM ( 'NONE', ( #327 ), #401 ) ;
#488 = COLOUR_RGB ( '',0.2509803921568627416, 0.2509803921568627416, 0.2509803921568627416 ) ;
#489 =( GEOMETRIC_REPRESENTATION_CONTEXT ( 3 ) GLOBAL_UNCERTAINTY_ASSIGNED_CONTEXT ( ( #464 ) ) GLOBAL_UNIT_ASSIGNED_CONTEXT ( ( #807, #378, #383 ) ) REPRESENTATION_CONTEXT ( 'NONE', 'WORKASPACE' ) );
#490 = CARTESIAN_POINT ( 'NONE',  ( -4.770676503729919027, 0.2945525374112606398, 2.914161157578004868 ) ) ;
#491 = VERTEX_POINT ( 'NONE', #752 ) ;
#492 =( NAMED_UNIT ( * ) SI_UNIT ( $, .STERADIAN. ) SOLID_ANGLE_UNIT ( ) );
#493 = FILL_AREA_STYLE_COLOUR ( '', #37 ) ;
#494 = EDGE_LOOP ( 'NONE', ( #540, #766 ) ) ;
#495 = MANIFOLD_SOLID_BREP ( 'am-4535-1000 5mm Hex x 1000IN Spacer-1-solid1', #268 ) ;
#496 = DIRECTION ( 'NONE',  ( -3.004629197474316090E-16, 1.000000000000000000, 0.000000000000000000 ) ) ;
#497 = SURFACE_STYLE_USAGE ( .BOTH. , #626 ) ;
#498 = EDGE_CURVE ( 'NONE', #536, #75, #440, .T. ) ;
#499 = VERTEX_POINT ( 'NONE', #119 ) ;
#500 = CIRCLE ( 'NONE', #60, 0.3937007874015746034 ) ;
#501 = FILL_AREA_STYLE ('',( #184 ) ) ;
#502 = MECHANICAL_DESIGN_GEOMETRIC_PRESENTATION_REPRESENTATION (  '', ( #291 ), #232 ) ;
#503 = CARTESIAN_POINT ( 'NONE',  ( -4.713850689833302354, 0.1961273405608668918, 2.914161157578004868 ) ) ;
#504 = FILL_AREA_STYLE_COLOUR ( '', #472 ) ;
#505 = PRESENTATION_STYLE_ASSIGNMENT (( #247 ) ) ;
#506 =( LENGTH_UNIT ( ) NAMED_UNIT ( * ) SI_UNIT ( $, .METRE. ) );
#507 =( LENGTH_UNIT ( ) NAMED_UNIT ( * ) SI_UNIT ( $, .METRE. ) );
#508 = DIRECTION ( 'NONE',  ( 0.000000000000000000, 0.000000000000000000, 1.000000000000000000 ) ) ;
#509 = FILL_AREA_STYLE_COLOUR ( '', #420 ) ;
#510 = SURFACE_SIDE_STYLE ('',( #310 ) ) ;
#511 = SURFACE_STYLE_FILL_AREA ( #629 ) ;
#512 = ORIENTED_EDGE ( 'NONE', *, *, #35, .T. ) ;
#513 = STYLED_ITEM ( 'NONE', ( #346 ), #41 ) ;
#514 = STYLED_ITEM ( 'NONE', ( #315 ), #235 ) ;
#515 =( NAMED_UNIT ( * ) SI_UNIT ( $, .STERADIAN. ) SOLID_ANGLE_UNIT ( ) );
#516 = MECHANICAL_DESIGN_GEOMETRIC_PRESENTATION_REPRESENTATION (  '', ( #797 ), #354 ) ;
#517 = CARTESIAN_POINT ( 'NONE',  ( -4.941153945419769045, 0.1961273405608669473, 2.914161157578004868 ) ) ;
#518 = CARTESIAN_POINT ( 'NONE',  ( -4.827502317626535699, 0.6961273405608668918, 1.914161157578004868 ) ) ;
#519 =( NAMED_UNIT ( * ) PLANE_ANGLE_UNIT ( ) SI_UNIT ( $, .RADIAN. ) );
#520 = PLANE ( 'NONE',  #40 ) ;
#521 = UNCERTAINTY_MEASURE_WITH_UNIT (LENGTH_MEASURE( 1.000000000000000082E-05 ), #146, 'distance_accuracy_value', 'NONE');
#522 = DIRECTION ( 'NONE',  ( 0.000000000000000000, 1.000000000000000000, 0.000000000000000000 ) ) ;
#523 = ORIENTED_EDGE ( 'NONE', *, *, #770, .T. ) ;
#524 = CARTESIAN_POINT ( 'NONE',  ( -4.827502317626535699, 0.1961273405608669196, 1.914161157578004868 ) ) ;
#525 = ADVANCED_FACE ( 'NONE', ( #380 ), #635, .T. ) ;
#526 =( NAMED_UNIT ( * ) PLANE_ANGLE_UNIT ( ) SI_UNIT ( $, .RADIAN. ) );
#527 = CARTESIAN_POINT ( 'NONE',  ( -4.941153945419769045, 0.1961273405608669473, 2.914161157578004868 ) ) ;
#528 = DIRECTION ( 'NONE',  ( 0.000000000000000000, 0.000000000000000000, -1.000000000000000000 ) ) ;
#529 = ORIENTED_EDGE ( 'NONE', *, *, #358, .T. ) ;
#530 = AXIS2_PLACEMENT_3D ( 'NONE', #579, #508, #127 ) ;
#531 = VECTOR ( 'NONE', #88, 39.37007874015748143 ) ;
#532 = LINE ( 'NONE', #517, #71 ) ;
#533 = UNCERTAINTY_MEASURE_WITH_UNIT (LENGTH_MEASURE( 1.000000000000000082E-05 ), #139, 'distance_accuracy_value', 'NONE');
#534 = SURFACE_STYLE_FILL_AREA ( #86 ) ;
#535 = COLOUR_RGB ( '',0.000000000000000000, 1.000000000000000000, 0.000000000000000000 ) ;
#536 = VERTEX_POINT ( 'NONE', #784 ) ;
#537 = SURFACE_SIDE_STYLE ('',( #534 ) ) ;
#538 = LENGTH_MEASURE_WITH_UNIT ( LENGTH_MEASURE( 0.02539999999999999897 ), #599 );
#539 = DIMENSIONAL_EXPONENTS ( 1.000000000000000000, 0.000000000000000000, 0.000000000000000000, 0.000000000000000000, 0.000000000000000000, 0.000000000000000000, 0.000000000000000000 ) ;
#540 = ORIENTED_EDGE ( 'NONE', *, *, #136, .F. ) ;
#541 = EDGE_CURVE ( 'NONE', #491, #545, #390, .T. ) ;
#542 = CARTESIAN_POINT ( 'NONE',  ( -4.827502317626535699, 0.5898281279624416618, 1.914161157578004868 ) ) ;
#543 = LINE ( 'NONE', #789, #187 ) ;
#544 = SURFACE_SIDE_STYLE ('',( #280 ) ) ;
#545 = VERTEX_POINT ( 'NONE', #198 ) ;
#546 = CARTESIAN_POINT ( 'NONE',  ( -4.827502317626535699, -0.3038726594391330527, 1.914161157578004868 ) ) ;
#547 = COLOUR_RGB ( '',0.2509803921568627416, 0.2509803921568627416, 0.2509803921568627416 ) ;
#548 = VECTOR ( 'NONE', #408, 39.37007874015748854 ) ;
#549 = STYLED_ITEM ( 'NONE', ( #362 ), #443 ) ;
#550 = PRESENTATION_LAYER_ASSIGNMENT (  '', '', ( #99 ) ) ;
#551 = LINE ( 'NONE', #799, #27 ) ;
#552 = DIMENSIONAL_EXPONENTS ( 1.000000000000000000, 0.000000000000000000, 0.000000000000000000, 0.000000000000000000, 0.000000000000000000, 0.000000000000000000, 0.000000000000000000 ) ;
#553 = UNCERTAINTY_MEASURE_WITH_UNIT (LENGTH_MEASURE( 1.000000000000000082E-05 ), #438, 'distance_accuracy_value', 'NONE');
#554 = CARTESIAN_POINT ( 'NONE',  ( -4.770676503729919027, 0.2945525374112606398, 2.914161157578004868 ) ) ;
#555 =( NAMED_UNIT ( * ) SI_UNIT ( $, .STERADIAN. ) SOLID_ANGLE_UNIT ( ) );
#556 = EDGE_CURVE ( 'NONE', #34, #427, #532, .T. ) ;
#557 =( LENGTH_UNIT ( ) NAMED_UNIT ( * ) SI_UNIT ( $, .METRE. ) );
#558 = DIMENSIONAL_EXPONENTS ( 1.000000000000000000, 0.000000000000000000, 0.000000000000000000, 0.000000000000000000, 0.000000000000000000, 0.000000000000000000, 0.000000000000000000 ) ;
#559 = LINE ( 'NONE', #345, #72 ) ;
#560 = CARTESIAN_POINT ( 'NONE',  ( -4.941153945419769045, 0.1961273405608669473, 2.914161157578004868 ) ) ;
#561 = SURFACE_STYLE_FILL_AREA ( #809 ) ;
#562 = ORIENTED_EDGE ( 'NONE', *, *, #145, .T. ) ;
#563 = PRESENTATION_LAYER_ASSIGNMENT (  '', '', ( #430 ) ) ;
#564 = MECHANICAL_DESIGN_GEOMETRIC_PRESENTATION_REPRESENTATION (  '', ( #610 ), #451 ) ;
#565 = PRESENTATION_LAYER_ASSIGNMENT (  '', '', ( #797 ) ) ;
#566 = STYLED_ITEM ( 'NONE', ( #4 ), #747 ) ;
#567 = LINE ( 'NONE', #158, #286 ) ;
#568 = ORIENTED_EDGE ( 'NONE', *, *, #720, .T. ) ;
#569 = ADVANCED_FACE ( 'NONE', ( #596 ), #777, .T. ) ;
#570 =( CONVERSION_BASED_UNIT ( 'INCH', #687 ) LENGTH_UNIT ( ) NAMED_UNIT ( #466 ) );
#571 = SURFACE_STYLE_FILL_AREA ( #501 ) ;
#572 = ORIENTED_EDGE ( 'NONE', *, *, #456, .F. ) ;
#573 = FACE_BOUND ( 'NONE', #89, .T. ) ;
#574 = AXIS2_PLACEMENT_3D ( 'NONE', #279, #148, #459 ) ;
#575 = AXIS2_PLACEMENT_3D ( 'NONE', #79, #463, #140 ) ;
#576 = PRESENTATION_LAYER_ASSIGNMENT (  '', '', ( #291 ) ) ;
#577 = FILL_AREA_STYLE ('',( #169 ) ) ;
#578 = EDGE_CURVE ( 'NONE', #427, #370, #605, .T. ) ;
#579 = CARTESIAN_POINT ( 'NONE',  ( -4.827502317626535699, 0.1961273405608669196, 2.914161157578004868 ) ) ;
#580 = CARTESIAN_POINT ( 'NONE',  ( -4.827502317626535699, -0.1975734468407078226, 1.914161157578004868 ) ) ;
#581 = DIRECTION ( 'NONE',  ( 0.5000000000000002220, -0.8660254037844384856, 0.000000000000000000 ) ) ;
#582 = ORIENTED_EDGE ( 'NONE', *, *, #578, .T. ) ;
#583 = LENGTH_MEASURE_WITH_UNIT ( LENGTH_MEASURE( 0.02539999999999999897 ), #388 );
#584 = PLANE ( 'NONE',  #135 ) ;
#585 = LENGTH_MEASURE_WITH_UNIT ( LENGTH_MEASURE( 0.02539999999999999897 ), #126 );
#586 = EDGE_LOOP ( 'NONE', ( #764, #185, #582, #391 ) ) ;
#587 = MECHANICAL_DESIGN_GEOMETRIC_PRESENTATION_REPRESENTATION (  '', ( #690 ), #644 ) ;
#588 = COLOUR_RGB ( '',0.000000000000000000, 1.000000000000000000, 0.000000000000000000 ) ;
#589 = SURFACE_SIDE_STYLE ('',( #639 ) ) ;
#590 = CARTESIAN_POINT ( 'NONE',  ( -4.884328131523152372, 0.2945525374112606398, 2.914161157578004868 ) ) ;
#591 =( GEOMETRIC_REPRESENTATION_CONTEXT ( 3 ) GLOBAL_UNCERTAINTY_ASSIGNED_CONTEXT ( ( #39 ) ) GLOBAL_UNIT_ASSIGNED_CONTEXT ( ( #609, #416, #154 ) ) REPRESENTATION_CONTEXT ( 'NONE', 'WORKASPACE' ) );
#592 = LENGTH_MEASURE_WITH_UNIT ( LENGTH_MEASURE( 0.02539999999999999897 ), #274 );
#593 = ORIENTED_EDGE ( 'NONE', *, *, #556, .F. ) ;
#594 = DIRECTION ( 'NONE',  ( 0.000000000000000000, 0.000000000000000000, -1.000000000000000000 ) ) ;
#595 = PRODUCT_RELATED_PRODUCT_CATEGORY ( 'part', '', ( #305 ) ) ;
#596 = FACE_OUTER_BOUND ( 'NONE', #461, .T. ) ;
#597 = FACE_OUTER_BOUND ( 'NONE', #45, .T. ) ;
#598 = DIMENSIONAL_EXPONENTS ( 1.000000000000000000, 0.000000000000000000, 0.000000000000000000, 0.000000000000000000, 0.000000000000000000, 0.000000000000000000, 0.000000000000000000 ) ;
#599 =( LENGTH_UNIT ( ) NAMED_UNIT ( * ) SI_UNIT ( $, .METRE. ) );
#600 = ORIENTED_EDGE ( 'NONE', *, *, #469, .T. ) ;
#601 = EDGE_CURVE ( 'NONE', #427, #324, #641, .T. ) ;
#602 = COLOUR_RGB ( '',0.2509803921568627416, 0.2509803921568627416, 0.2509803921568627416 ) ;
#603 = PLANE ( 'NONE',  #8 ) ;
#604 = EDGE_LOOP ( 'NONE', ( #360, #523, #600, #750 ) ) ;
#605 = LINE ( 'NONE', #323, #365 ) ;
#606 = FILL_AREA_STYLE_COLOUR ( '', #218 ) ;
#607 = ORIENTED_EDGE ( 'NONE', *, *, #698, .F. ) ;
#608 = FILL_AREA_STYLE_COLOUR ( '', #123 ) ;
#609 =( CONVERSION_BASED_UNIT ( 'INCH', #165 ) LENGTH_UNIT ( ) NAMED_UNIT ( #222 ) );
#610 = STYLED_ITEM ( 'NONE', ( #161 ), #170 ) ;
#611 = SURFACE_STYLE_USAGE ( .BOTH. , #617 ) ;
#612 = LENGTH_MEASURE_WITH_UNIT ( LENGTH_MEASURE( 0.02539999999999999897 ), #479 );
#613 = CARTESIAN_POINT ( 'NONE',  ( -4.884328131523152372, 0.09770214371047326873, 2.914161157578004868 ) ) ;
#614 =( GEOMETRIC_REPRESENTATION_CONTEXT ( 3 ) GLOBAL_UNCERTAINTY_ASSIGNED_CONTEXT ( ( #706 ) ) GLOBAL_UNIT_ASSIGNED_CONTEXT ( ( #570, #47, #492 ) ) REPRESENTATION_CONTEXT ( 'NONE', 'WORKASPACE' ) );
#615 = PRODUCT_DEFINITION_FORMATION_WITH_SPECIFIED_SOURCE ( 'ANY', '', #305, .NOT_KNOWN. ) ;
#616 = CARTESIAN_POINT ( 'NONE',  ( -4.827502317626535699, 0.1961273405608669196, 2.914161157578004868 ) ) ;
#617 = SURFACE_SIDE_STYLE ('',( #220 ) ) ;
#618 = LENGTH_MEASURE_WITH_UNIT ( LENGTH_MEASURE( 0.02539999999999999897 ), #684 );
#619 = DIRECTION ( 'NONE',  ( 0.000000000000000000, 1.000000000000000000, 0.000000000000000000 ) ) ;
#620 = ORIENTED_EDGE ( 'NONE', *, *, #321, .F. ) ;
#621 = CARTESIAN_POINT ( 'NONE',  ( -4.827502317626535699, -0.3038726594391330527, 1.914161157578004868 ) ) ;
#622 = EDGE_LOOP ( 'NONE', ( #30, #155 ) ) ;
#623 = COLOUR_RGB ( '',0.000000000000000000, 1.000000000000000000, 0.000000000000000000 ) ;
#624 = ADVANCED_FACE ( 'NONE', ( #13, #260 ), #520, .F. ) ;
#625 = MECHANICAL_DESIGN_GEOMETRIC_PRESENTATION_REPRESENTATION (  '', ( #487 ), #364 ) ;
#626 = SURFACE_SIDE_STYLE ('',( #571 ) ) ;
#627 = VERTEX_POINT ( 'NONE', #621 ) ;
#628 = SURFACE_STYLE_USAGE ( .BOTH. , #510 ) ;
#629 = FILL_AREA_STYLE ('',( #504 ) ) ;
#630 = FACE_OUTER_BOUND ( 'NONE', #201, .T. ) ;
#631 =( LENGTH_UNIT ( ) NAMED_UNIT ( * ) SI_UNIT ( $, .METRE. ) );
#632 =( NAMED_UNIT ( * ) PLANE_ANGLE_UNIT ( ) SI_UNIT ( $, .RADIAN. ) );
#633 = CIRCLE ( 'NONE', #419, 0.3937007874015747699 ) ;
#634 =( GEOMETRIC_REPRESENTATION_CONTEXT ( 3 ) GLOBAL_UNCERTAINTY_ASSIGNED_CONTEXT ( ( #712 ) ) GLOBAL_UNIT_ASSIGNED_CONTEXT ( ( #371, #375, #312 ) ) REPRESENTATION_CONTEXT ( 'NONE', 'WORKASPACE' ) );
#635 = CYLINDRICAL_SURFACE ( 'NONE', #575, 0.3937007874015751585 ) ;
#636 = ORIENTED_EDGE ( 'NONE', *, *, #313, .T. ) ;
#637 = ORIENTED_EDGE ( 'NONE', *, *, #685, .F. ) ;
#638 = APPLICATION_PROTOCOL_DEFINITION ( 'draft international standard', 'automotive_design', 1998, #657 ) ;
#639 = SURFACE_STYLE_FILL_AREA ( #718 ) ;
#640 = LINE ( 'NONE', #590, #228 ) ;
#641 = LINE ( 'NONE', #67, #10 ) ;
#642 = EDGE_LOOP ( 'NONE', ( #372, #131 ) ) ;
#643 = EDGE_CURVE ( 'NONE', #75, #499, #551, .T. ) ;
#644 =( GEOMETRIC_REPRESENTATION_CONTEXT ( 3 ) GLOBAL_UNCERTAINTY_ASSIGNED_CONTEXT ( ( #795 ) ) GLOBAL_UNIT_ASSIGNED_CONTEXT ( ( #484, #796, #555 ) ) REPRESENTATION_CONTEXT ( 'NONE', 'WORKASPACE' ) );
#645 =( GEOMETRIC_REPRESENTATION_CONTEXT ( 3 ) GLOBAL_UNCERTAINTY_ASSIGNED_CONTEXT ( ( #224 ) ) GLOBAL_UNIT_ASSIGNED_CONTEXT ( ( #239, #251, #367 ) ) REPRESENTATION_CONTEXT ( 'NONE', 'WORKASPACE' ) );
#646 = CARTESIAN_POINT ( 'NONE',  ( 0.000000000000000000, 0.000000000000000000, 0.000000000000000000 ) ) ;
#647 = MECHANICAL_DESIGN_GEOMETRIC_PRESENTATION_REPRESENTATION (  '', ( #475 ), #817 ) ;
#648 = FILL_AREA_STYLE ('',( #711 ) ) ;
#649 =( NAMED_UNIT ( * ) PLANE_ANGLE_UNIT ( ) SI_UNIT ( $, .RADIAN. ) );
#650 = CARTESIAN_POINT ( 'NONE',  ( -4.827502317626535699, 0.1961273405608669196, 2.914161157578004868 ) ) ;
#651 = SURFACE_STYLE_FILL_AREA ( #336 ) ;
#652 = DIRECTION ( 'NONE',  ( 0.000000000000000000, -1.000000000000000000, 0.000000000000000000 ) ) ;
#653 = DIRECTION ( 'NONE',  ( 0.000000000000000000, 0.000000000000000000, 1.000000000000000000 ) ) ;
#654 = FACE_OUTER_BOUND ( 'NONE', #18, .T. ) ;
#655 = CARTESIAN_POINT ( 'NONE',  ( -4.884328131523152372, 0.09770214371047326873, 1.914161157578005312 ) ) ;
#656 = VERTEX_POINT ( 'NONE', #213 ) ;
#657 = APPLICATION_CONTEXT ( 'automotive_design' ) ;
#658 = AXIS2_PLACEMENT_3D ( 'NONE', #74, #216, #652 ) ;
#659 =( CONVERSION_BASED_UNIT ( 'INCH', #133 ) LENGTH_UNIT ( ) NAMED_UNIT ( #289 ) );
#660 = MECHANICAL_DESIGN_GEOMETRIC_PRESENTATION_REPRESENTATION (  '', ( #191 ), #729 ) ;
#661 = DIMENSIONAL_EXPONENTS ( 1.000000000000000000, 0.000000000000000000, 0.000000000000000000, 0.000000000000000000, 0.000000000000000000, 0.000000000000000000, 0.000000000000000000 ) ;
#662 = AXIS2_PLACEMENT_3D ( 'NONE', #788, #106, #164 ) ;
#663 = CARTESIAN_POINT ( 'NONE',  ( -4.713850689833302354, 0.1961273405608668918, 1.914161157578005312 ) ) ;
#664 = VERTEX_POINT ( 'NONE', #283 ) ;
#665 = CARTESIAN_POINT ( 'NONE',  ( -4.433801530224960707, 0.1961273405608669473, 2.914161157578004868 ) ) ;
#666 = DIRECTION ( 'NONE',  ( 0.000000000000000000, 0.000000000000000000, 1.000000000000000000 ) ) ;
#667 = ORIENTED_EDGE ( 'NONE', *, *, #643, .F. ) ;
#668 =( LENGTH_UNIT ( ) NAMED_UNIT ( * ) SI_UNIT ( $, .METRE. ) );
#669 = DIRECTION ( 'NONE',  ( 0.000000000000000000, 1.000000000000000000, 0.000000000000000000 ) ) ;
#670 = DIRECTION ( 'NONE',  ( 0.000000000000000000, 0.000000000000000000, 1.000000000000000000 ) ) ;
#671 = PRODUCT_DEFINITION ( 'UNKNOWN', '', #615, #771 ) ;
#672 = DIMENSIONAL_EXPONENTS ( 1.000000000000000000, 0.000000000000000000, 0.000000000000000000, 0.000000000000000000, 0.000000000000000000, 0.000000000000000000, 0.000000000000000000 ) ;
#673 = AXIS2_PLACEMENT_3D ( 'NONE', #210, #32, #465 ) ;
#674 = LINE ( 'NONE', #478, #693 ) ;
#675 =( NAMED_UNIT ( * ) PLANE_ANGLE_UNIT ( ) SI_UNIT ( $, .RADIAN. ) );
#676 = FACE_BOUND ( 'NONE', #405, .T. ) ;
#677 = AXIS2_PLACEMENT_3D ( 'NONE', #503, #688, #581 ) ;
#678 = AXIS2_PLACEMENT_3D ( 'NONE', #646, #653, #266 ) ;
#679 =( NAMED_UNIT ( * ) SI_UNIT ( $, .STERADIAN. ) SOLID_ANGLE_UNIT ( ) );
#680 = DIMENSIONAL_EXPONENTS ( 1.000000000000000000, 0.000000000000000000, 0.000000000000000000, 0.000000000000000000, 0.000000000000000000, 0.000000000000000000, 0.000000000000000000 ) ;
#681 = SURFACE_STYLE_USAGE ( .BOTH. , #227 ) ;
#682 = CARTESIAN_POINT ( 'NONE',  ( -4.827502317626535699, 0.1961273405608669196, 2.914161157578004868 ) ) ;
#683 =( NAMED_UNIT ( * ) PLANE_ANGLE_UNIT ( ) SI_UNIT ( $, .RADIAN. ) );
#684 =( LENGTH_UNIT ( ) NAMED_UNIT ( * ) SI_UNIT ( $, .METRE. ) );
#685 = EDGE_CURVE ( 'NONE', #78, #324, #559, .T. ) ;
#686 = ORIENTED_EDGE ( 'NONE', *, *, #19, .T. ) ;
#687 = LENGTH_MEASURE_WITH_UNIT ( LENGTH_MEASURE( 0.02539999999999999897 ), #436 );
#688 = DIRECTION ( 'NONE',  ( -0.8660254037844385966, -0.5000000000000003331, 0.000000000000000000 ) ) ;
#689 = ORIENTED_EDGE ( 'NONE', *, *, #259, .T. ) ;
#690 = STYLED_ITEM ( 'NONE', ( #292 ), #113 ) ;
#691 = STYLED_ITEM ( 'NONE', ( #303 ), #411 ) ;
#692 = COLOUR_RGB ( '',0.2509803921568627416, 0.2509803921568627416, 0.2509803921568627416 ) ;
#693 = VECTOR ( 'NONE', #417, 39.37007874015748854 ) ;
#694 = FILL_AREA_STYLE_COLOUR ( '', #52 ) ;
#695 = LINE ( 'NONE', #117, #767 ) ;
#696 = VERTEX_POINT ( 'NONE', #802 ) ;
#697 = DIRECTION ( 'NONE',  ( 0.000000000000000000, 0.000000000000000000, 1.000000000000000000 ) ) ;
#698 = EDGE_CURVE ( 'NONE', #627, #363, #294, .T. ) ;
#699 = SURFACE_STYLE_USAGE ( .BOTH. , #748 ) ;
#700 =( NAMED_UNIT ( * ) PLANE_ANGLE_UNIT ( ) SI_UNIT ( $, .RADIAN. ) );
#701 = DIRECTION ( 'NONE',  ( -1.000000000000000000, -1.502314598737159524E-16, 0.000000000000000000 ) ) ;
#702 = COLOUR_RGB ( '',0.000000000000000000, 1.000000000000000000, 0.000000000000000000 ) ;
#703 = AXIS2_PLACEMENT_3D ( 'NONE', #460, #528, #522 ) ;
#704 = AXIS2_PLACEMENT_3D ( 'NONE', #437, #697, #320 ) ;
#705 = CIRCLE ( 'NONE', #662, 0.5000000000000000000 ) ;
#706 = UNCERTAINTY_MEASURE_WITH_UNIT (LENGTH_MEASURE( 1.000000000000000082E-05 ), #570, 'distance_accuracy_value', 'NONE');
#707 = PLANE ( 'NONE',  #530 ) ;
#708 = ORIENTED_EDGE ( 'NONE', *, *, #321, .T. ) ;
#709 = EDGE_CURVE ( 'NONE', #245, #149, #794, .T. ) ;
#710 = PRESENTATION_STYLE_ASSIGNMENT (( #772 ) ) ;
#711 = FILL_AREA_STYLE_COLOUR ( '', #535 ) ;
#712 = UNCERTAINTY_MEASURE_WITH_UNIT (LENGTH_MEASURE( 1.000000000000000082E-05 ), #371, 'distance_accuracy_value', 'NONE');
#713 = DIRECTION ( 'NONE',  ( 0.000000000000000000, 1.000000000000000000, 0.000000000000000000 ) ) ;
#714 = PRESENTATION_STYLE_ASSIGNMENT (( #141 ) ) ;
#715 = PRESENTATION_LAYER_ASSIGNMENT (  '', '', ( #337 ) ) ;
#716 = ORIENTED_EDGE ( 'NONE', *, *, #643, .T. ) ;
#717 = CIRCLE ( 'NONE', #190, 0.3937007874015747699 ) ;
#718 = FILL_AREA_STYLE ('',( #15 ) ) ;
#719 = SURFACE_SIDE_STYLE ('',( #153 ) ) ;
#720 = EDGE_CURVE ( 'NONE', #491, #664, #730, .T. ) ;
#721 = DIRECTION ( 'NONE',  ( -0.5000000000000001110, -0.8660254037844384856, 0.000000000000000000 ) ) ;
#722 = CYLINDRICAL_SURFACE ( 'NONE', #658, 0.3937007874015747699 ) ;
#723 = ORIENTED_EDGE ( 'NONE', *, *, #498, .F. ) ;
#724 =( CONVERSION_BASED_UNIT ( 'INCH', #592 ) LENGTH_UNIT ( ) NAMED_UNIT ( #457 ) );
#725 = LINE ( 'NONE', #80, #394 ) ;
#726 = DIRECTION ( 'NONE',  ( 0.5000000000000001110, 0.8660254037844384856, 0.000000000000000000 ) ) ;
#727 = ORIENTED_EDGE ( 'NONE', *, *, #385, .T. ) ;
#728 = CYLINDRICAL_SURFACE ( 'NONE', #173, 0.5000000000000000000 ) ;
#729 =( GEOMETRIC_REPRESENTATION_CONTEXT ( 3 ) GLOBAL_UNCERTAINTY_ASSIGNED_CONTEXT ( ( #778 ) ) GLOBAL_UNIT_ASSIGNED_CONTEXT ( ( #724, #526, #447 ) ) REPRESENTATION_CONTEXT ( 'NONE', 'WORKASPACE' ) );
#730 = CIRCLE ( 'NONE', #368, 0.3937007874015746034 ) ;
#731 = FILL_AREA_STYLE ('',( #276 ) ) ;
#732 = EDGE_LOOP ( 'NONE', ( #572, #253, #810, #716 ) ) ;
#733 = DIMENSIONAL_EXPONENTS ( 1.000000000000000000, 0.000000000000000000, 0.000000000000000000, 0.000000000000000000, 0.000000000000000000, 0.000000000000000000, 0.000000000000000000 ) ;
#734 = SURFACE_STYLE_FILL_AREA ( #483 ) ;
#735 = EDGE_CURVE ( 'NONE', #536, #696, #160, .T. ) ;
#736 = DIRECTION ( 'NONE',  ( -0.000000000000000000, -0.000000000000000000, 1.000000000000000000 ) ) ;
#737 = DIMENSIONAL_EXPONENTS ( 1.000000000000000000, 0.000000000000000000, 0.000000000000000000, 0.000000000000000000, 0.000000000000000000, 0.000000000000000000, 0.000000000000000000 ) ;
#738 = MECHANICAL_DESIGN_GEOMETRIC_PRESENTATION_REPRESENTATION (  '', ( #430 ), #46 ) ;
#739 = SURFACE_SIDE_STYLE ('',( #734 ) ) ;
#740 =( NAMED_UNIT ( * ) SI_UNIT ( $, .STERADIAN. ) SOLID_ANGLE_UNIT ( ) );
#741 = VECTOR ( 'NONE', #726, 39.37007874015748854 ) ;
#742 = PRESENTATION_LAYER_ASSIGNMENT (  '', '', ( #326 ) ) ;
#743 = EDGE_CURVE ( 'NONE', #499, #78, #674, .T. ) ;
#744 = DIRECTION ( 'NONE',  ( -0.000000000000000000, -0.000000000000000000, -1.000000000000000000 ) ) ;
#745 = SURFACE_SIDE_STYLE ('',( #94 ) ) ;
#746 = ORIENTED_EDGE ( 'NONE', *, *, #743, .F. ) ;
#747 = ADVANCED_BREP_SHAPE_REPRESENTATION ( 'am-4592 Sushi Roller 5mm Hex Bore', ( #495, #776, #678 ), #341 ) ;
#748 = SURFACE_SIDE_STYLE ('',( #114 ) ) ;
#749 = PRESENTATION_STYLE_ASSIGNMENT (( #628 ) ) ;
#750 = ORIENTED_EDGE ( 'NONE', *, *, #541, .F. ) ;
#751 = DIRECTION ( 'NONE',  ( -0.000000000000000000, -0.000000000000000000, 1.000000000000000000 ) ) ;
#752 = CARTESIAN_POINT ( 'NONE',  ( -5.221203105028110691, 0.1961273405608669196, 2.914161157578004868 ) ) ;
#753 = FACE_OUTER_BOUND ( 'NONE', #24, .T. ) ;
#754 = AXIS2_PLACEMENT_3D ( 'NONE', #48, #231, #669 ) ;
#755 = CIRCLE ( 'NONE', #163, 0.3937007874015746034 ) ;
#756 = COLOUR_RGB ( '',0.7921568627450980005, 0.8196078431372548767, 0.9333333333333333481 ) ;
#757 = AXIS2_PLACEMENT_3D ( 'NONE', #616, #470, #98 ) ;
#758 = PRESENTATION_STYLE_ASSIGNMENT (( #115 ) ) ;
#759 = ORIENTED_EDGE ( 'NONE', *, *, #290, .T. ) ;
#760 = EDGE_CURVE ( 'NONE', #14, #627, #705, .T. ) ;
#761 = EDGE_CURVE ( 'NONE', #344, #363, #179, .T. ) ;
#762 = FILL_AREA_STYLE ('',( #694 ) ) ;
#763 = FACE_OUTER_BOUND ( 'NONE', #297, .T. ) ;
#764 = ORIENTED_EDGE ( 'NONE', *, *, #313, .F. ) ;
#765 = FACE_OUTER_BOUND ( 'NONE', #189, .T. ) ;
#766 = ORIENTED_EDGE ( 'NONE', *, *, #761, .F. ) ;
#767 = VECTOR ( 'NONE', #751, 39.37007874015748143 ) ;
#768 = ORIENTED_EDGE ( 'NONE', *, *, #556, .T. ) ;
#769 = MECHANICAL_DESIGN_GEOMETRIC_PRESENTATION_REPRESENTATION (  '', ( #326 ), #634 ) ;
#770 = EDGE_CURVE ( 'NONE', #664, #656, #152, .T. ) ;
#771 = PRODUCT_DEFINITION_CONTEXT ( 'detailed design', #128, 'design' ) ;
#772 = SURFACE_STYLE_USAGE ( .BOTH. , #177 ) ;
#773 =( NAMED_UNIT ( * ) SI_UNIT ( $, .STERADIAN. ) SOLID_ANGLE_UNIT ( ) );
#774 = DIRECTION ( 'NONE',  ( -0.000000000000000000, -0.000000000000000000, -1.000000000000000000 ) ) ;
#775 = CARTESIAN_POINT ( 'NONE',  ( -4.827502317626535699, 0.6961273405608668918, 2.914161157578004868 ) ) ;
#776 = MANIFOLD_SOLID_BREP ( 'Sushi Overmold Slice hex spacer-1-solid1', #203 ) ;
#777 = PLANE ( 'NONE',  #178 ) ;
#778 = UNCERTAINTY_MEASURE_WITH_UNIT (LENGTH_MEASURE( 1.000000000000000082E-05 ), #724, 'distance_accuracy_value', 'NONE');
#779 = DIRECTION ( 'NONE',  ( 0.000000000000000000, 0.000000000000000000, -1.000000000000000000 ) ) ;
#780 =( NAMED_UNIT ( * ) PLANE_ANGLE_UNIT ( ) SI_UNIT ( $, .RADIAN. ) );
#781 =( LENGTH_UNIT ( ) NAMED_UNIT ( * ) SI_UNIT ( $, .METRE. ) );
#782 = VECTOR ( 'NONE', #736, 39.37007874015748143 ) ;
#783 = FILL_AREA_STYLE_COLOUR ( '', #702 ) ;
#784 = CARTESIAN_POINT ( 'NONE',  ( -4.770676503729919027, 0.2945525374112606398, 2.914161157578004868 ) ) ;
#785 = SURFACE_STYLE_USAGE ( .BOTH. , #537 ) ;
#786 = DIRECTION ( 'NONE',  ( 0.000000000000000000, 0.000000000000000000, 1.000000000000000000 ) ) ;
#787 = VERTEX_POINT ( 'NONE', #580 ) ;
#788 = CARTESIAN_POINT ( 'NONE',  ( -4.827502317626535699, 0.1961273405608669196, 1.914161157578004868 ) ) ;
#789 = CARTESIAN_POINT ( 'NONE',  ( -4.770676503729919027, 0.09770214371047329649, 1.914161157578005312 ) ) ;
#790 = CARTESIAN_POINT ( 'NONE',  ( -4.770676503729919027, 0.09770214371047329649, 2.914161157578004868 ) ) ;
#791 = ORIENTED_EDGE ( 'NONE', *, *, #19, .F. ) ;
#792 = ADVANCED_FACE ( 'NONE', ( #124 ), #293, .T. ) ;
#793 = VECTOR ( 'NONE', #33, 39.37007874015748143 ) ;
#794 = LINE ( 'NONE', #542, #246 ) ;
#795 = UNCERTAINTY_MEASURE_WITH_UNIT (LENGTH_MEASURE( 1.000000000000000082E-05 ), #484, 'distance_accuracy_value', 'NONE');
#796 =( NAMED_UNIT ( * ) PLANE_ANGLE_UNIT ( ) SI_UNIT ( $, .RADIAN. ) );
#797 = STYLED_ITEM ( 'NONE', ( #252 ), #525 ) ;
#798 = PRESENTATION_LAYER_ASSIGNMENT (  '', '', ( #566 ) ) ;
#799 = CARTESIAN_POINT ( 'NONE',  ( -4.884328131523152372, 0.2945525374112606398, 2.914161157578004868 ) ) ;
#800 = CYLINDRICAL_SURFACE ( 'NONE', #816, 0.3937007874015751585 ) ;
#801 = FILL_AREA_STYLE_COLOUR ( '', #122 ) ;
#802 = CARTESIAN_POINT ( 'NONE',  ( -4.770676503729919027, 0.2945525374112606398, 1.914161157578005312 ) ) ;
#803 = FACE_OUTER_BOUND ( 'NONE', #604, .T. ) ;
#804 = SURFACE_SIDE_STYLE ('',( #561 ) ) ;
#805 = ORIENTED_EDGE ( 'NONE', *, *, #87, .F. ) ;
#806 = VECTOR ( 'NONE', #701, 39.37007874015748143 ) ;
#807 =( CONVERSION_BASED_UNIT ( 'INCH', #300 ) LENGTH_UNIT ( ) NAMED_UNIT ( #539 ) );
#808 = SURFACE_STYLE_USAGE ( .BOTH. , #745 ) ;
#809 = FILL_AREA_STYLE ('',( #801 ) ) ;
#810 = ORIENTED_EDGE ( 'NONE', *, *, #498, .T. ) ;
#811 = CARTESIAN_POINT ( 'NONE',  ( -4.770676503729919027, 0.2945525374112606398, 1.914161157578005312 ) ) ;
#812 = ORIENTED_EDGE ( 'NONE', *, *, #290, .F. ) ;
#813 = DIRECTION ( 'NONE',  ( 0.000000000000000000, 1.000000000000000000, 0.000000000000000000 ) ) ;
#814 = ADVANCED_FACE ( 'NONE', ( #765 ), #174, .F. ) ;
#815 =( CONVERSION_BASED_UNIT ( 'INCH', #6 ) LENGTH_UNIT ( ) NAMED_UNIT ( #598 ) );
#816 = AXIS2_PLACEMENT_3D ( 'NONE', #357, #63, #5 ) ;
#817 =( GEOMETRIC_REPRESENTATION_CONTEXT ( 3 ) GLOBAL_UNCERTAINTY_ASSIGNED_CONTEXT ( ( #255 ) ) GLOBAL_UNIT_ASSIGNED_CONTEXT ( ( #93, #683, #679 ) ) REPRESENTATION_CONTEXT ( 'NONE', 'WORKASPACE' ) );
#818 =( LENGTH_UNIT ( ) NAMED_UNIT ( * ) SI_UNIT ( $, .METRE. ) );
#819 = DIRECTION ( 'NONE',  ( 0.5000000000000001110, 0.8660254037844384856, 0.000000000000000000 ) ) ;
ENDSEC;
END-ISO-10303-21;
