ISO-10303-21;
HEADER;
FILE_DESCRIPTION (( 'STEP AP203' ),
    '1' );
FILE_NAME ('am-4590 Sushi Roller 375 Hex Bore.STEP',
    '2021-05-26T14:33:27',
    ( '' ),
    ( '' ),
    'SwSTEP 2.0',
    'SolidWorks 2019',
    '' );
FILE_SCHEMA (( 'CONFIG_CONTROL_DESIGN' ));
ENDSEC;

DATA;
#1 = DIRECTION ( 'NONE',  ( 1.000000000000000000, 3.154466349054401728E-16, 0.000000000000000000 ) ) ;
#2 = CARTESIAN_POINT ( 'NONE',  ( -0.9183168656456660583, 0.9118558878000536660, 2.254439989159447322 ) ) ;
#3 = ADVANCED_FACE ( 'NONE', ( #168 ), #246, .F. ) ;
#4 = CYLINDRICAL_SURFACE ( 'NONE', #367, 0.3937007874015748810 ) ;
#5 = VERTEX_POINT ( 'NONE', #81 ) ;
#6 = ADVANCED_FACE ( 'NONE', ( #43 ), #124, .T. ) ;
#7 = AXIS2_PLACEMENT_3D ( 'NONE', #478, #299, #227 ) ;
#8 = DIRECTION ( 'NONE',  ( 0.7634990693313137289, -0.6458089277256995331, 0.000000000000000000 ) ) ;
#9 = VECTOR ( 'NONE', #1, 39.37007874015748143 ) ;
#10 = CARTESIAN_POINT ( 'NONE',  ( -0.5935573392265015569, 0.7243558878000534440, 2.254439989159447322 ) ) ;
#11 = CARTESIAN_POINT ( 'NONE',  ( -0.8100636901726112615, 0.7243558878000534440, 1.254439989159447322 ) ) ;
#12 = APPROVAL_STATUS ( 'not_yet_approved' ) ;
#13 = DIRECTION ( 'NONE',  ( 0.000000000000000000, 0.000000000000000000, 1.000000000000000000 ) ) ;
#14 = LINE ( 'NONE', #472, #213 ) ;
#15 = AXIS2_PLACEMENT_3D ( 'NONE', #355, #184, #27 ) ;
#16 = APPROVAL_ROLE ( '' ) ;
#17 = DIRECTION ( 'NONE',  ( -0.5000000000000001110, 0.8660254037844385966, 0.000000000000000000 ) ) ;
#18 = VERTEX_POINT ( 'NONE', #329 ) ;
#19 = DIRECTION ( 'NONE',  ( -1.000000000000000000, 0.000000000000000000, 0.000000000000000000 ) ) ;
#20 = ORIENTED_EDGE ( 'NONE', *, *, #402, .F. ) ;
#21 = EDGE_CURVE ( 'NONE', #160, #148, #506, .T. ) ;
#22 = DIRECTION ( 'NONE',  ( 0.000000000000000000, 0.000000000000000000, 1.000000000000000000 ) ) ;
#23 = CIRCLE ( 'NONE', #41, 0.3937007874015748254 ) ;
#24 = PRODUCT_RELATED_PRODUCT_CATEGORY ( 'detail', '', ( #502 ) ) ;
#25 = CARTESIAN_POINT ( 'NONE',  ( -0.8100636901726112615, 0.7243558878000534440, 2.254439989159447322 ) ) ;
#26 = ORIENTED_EDGE ( 'NONE', *, *, #384, .T. ) ;
#27 = DIRECTION ( 'NONE',  ( 0.5000000000000002220, 0.8660254037844384856, 0.000000000000000000 ) ) ;
#28 = ORIENTED_EDGE ( 'NONE', *, *, #352, .T. ) ;
#29 = EDGE_CURVE ( 'NONE', #148, #18, #439, .T. ) ;
#30 = DIRECTION ( 'NONE',  ( 0.7634990693313136179, -0.6458089277256996441, 0.000000000000000000 ) ) ;
#31 = ORIENTED_EDGE ( 'NONE', *, *, #29, .T. ) ;
#32 = PRODUCT_DEFINITION ( 'UNKNOWN', '', #236, #501 ) ;
#33 = AXIS2_PLACEMENT_3D ( 'NONE', #379, #174, #418 ) ;
#34 = CARTESIAN_POINT ( 'NONE',  ( -0.5935573392265015569, 0.7243558878000534440, 2.254439989159447322 ) ) ;
#35 = ORIENTED_EDGE ( 'NONE', *, *, #185, .T. ) ;
#36 = PLANE ( 'NONE',  #15 ) ;
#37 = EDGE_LOOP ( 'NONE', ( #444, #451, #311, #411 ) ) ;
#38 = EDGE_CURVE ( 'NONE', #220, #138, #289, .T. ) ;
#39 = ORIENTED_EDGE ( 'NONE', *, *, #194, .F. ) ;
#40 = CIRCLE ( 'NONE', #169, 0.5000000000000000000 ) ;
#41 = AXIS2_PLACEMENT_3D ( 'NONE', #309, #107, #271 ) ;
#42 = DIRECTION ( 'NONE',  ( 0.7634990693313137289, -0.6458089277256995331, 0.000000000000000000 ) ) ;
#43 = FACE_OUTER_BOUND ( 'NONE', #446, .T. ) ;
#44 = DIRECTION ( 'NONE',  ( 0.000000000000000000, -0.000000000000000000, -1.000000000000000000 ) ) ;
#45 = EDGE_CURVE ( 'NONE', #146, #138, #214, .T. ) ;
#46 = LINE ( 'NONE', #527, #284 ) ;
#47 = CC_DESIGN_PERSON_AND_ORGANIZATION_ASSIGNMENT ( #139, #340, ( #32 ) ) ;
#48 = CARTESIAN_POINT ( 'NONE',  ( -0.9183168656456660583, 0.5368558878000535550, 2.254439989159447322 ) ) ;
#49 = AXIS2_PLACEMENT_3D ( 'NONE', #385, #13, #50 ) ;
#50 = DIRECTION ( 'NONE',  ( -0.7634990693313136179, 0.6458089277256996441, 0.000000000000000000 ) ) ;
#51 = APPROVAL_PERSON_ORGANIZATION ( #391, #452, #256 ) ;
#52 = MECHANICAL_CONTEXT ( 'NONE', #456, 'mechanical' ) ;
#53 = EDGE_LOOP ( 'NONE', ( #423, #244, #113, #26 ) ) ;
#54 = CALENDAR_DATE ( 2021, 26, 5 ) ;
#55 = FACE_OUTER_BOUND ( 'NONE', #71, .T. ) ;
#56 = COORDINATED_UNIVERSAL_TIME_OFFSET ( 5, 0, .BEHIND. ) ;
#57 = CARTESIAN_POINT ( 'NONE',  ( -0.5935573392265015569, 0.7243558878000534440, 1.254439989159447322 ) ) ;
#58 = DIRECTION ( 'NONE',  ( -0.7634990693313136179, 0.6458089277256996441, 0.000000000000000000 ) ) ;
#59 = ORIENTED_EDGE ( 'NONE', *, *, #29, .F. ) ;
#60 = EDGE_CURVE ( 'NONE', #500, #286, #389, .T. ) ;
#61 = SECURITY_CLASSIFICATION_LEVEL ( 'unclassified' ) ;
#62 = FACE_BOUND ( 'NONE', #228, .T. ) ;
#63 = ORIENTED_EDGE ( 'NONE', *, *, #346, .F. ) ;
#64 = CARTESIAN_POINT ( 'NONE',  ( -0.4283141555069545636, 0.4014514239372035664, 2.254439989159447322 ) ) ;
#65 = ORIENTED_EDGE ( 'NONE', *, *, #419, .F. ) ;
#66 = CLOSED_SHELL ( 'NONE', ( #473, #165, #458, #118, #6, #327, #111, #251, #358, #93 ) ) ;
#67 = AXIS2_PLACEMENT_3D ( 'NONE', #112, #404, #30 ) ;
#68 = CARTESIAN_POINT ( 'NONE',  ( -0.9183168656456660583, 0.9118558878000536660, 2.254439989159447322 ) ) ;
#69 = ORIENTED_EDGE ( 'NONE', *, *, #45, .T. ) ;
#70 = DIRECTION ( 'NONE',  ( -0.5000000000000002220, -0.8660254037844384856, 0.000000000000000000 ) ) ;
#71 = EDGE_LOOP ( 'NONE', ( #491, #237 ) ) ;
#72 = CARTESIAN_POINT ( 'NONE',  ( -1.026570041118721077, 0.7243558878000535550, 2.254439989159447322 ) ) ;
#73 = ORIENTED_EDGE ( 'NONE', *, *, #438, .T. ) ;
#74 = CIRCLE ( 'NONE', #432, 0.3937007874015747144 ) ;
#75 = VECTOR ( 'NONE', #285, 39.37007874015748143 ) ;
#76 = LINE ( 'NONE', #159, #513 ) ;
#77 = EDGE_LOOP ( 'NONE', ( #35, #317 ) ) ;
#78 = DIRECTION ( 'NONE',  ( 1.000000000000000000, 0.000000000000000000, 0.000000000000000000 ) ) ;
#79 = EDGE_LOOP ( 'NONE', ( #163, #536 ) ) ;
#80 = CARTESIAN_POINT ( 'NONE',  ( -0.8100636901726112615, 0.7243558878000535550, 2.254439989159447322 ) ) ;
#81 = CARTESIAN_POINT ( 'NONE',  ( -0.5094735053965036009, 0.4701004044434787255, 2.254439989159447322 ) ) ;
#82 = VECTOR ( 'NONE', #531, 39.37007874015748143 ) ;
#83 =( LENGTH_UNIT ( ) NAMED_UNIT ( * ) SI_UNIT ( $, .METRE. ) );
#84 = EDGE_LOOP ( 'NONE', ( #321, #272, #405, #304 ) ) ;
#85 = DIRECTION ( 'NONE',  ( 0.000000000000000000, 0.000000000000000000, -1.000000000000000000 ) ) ;
#86 = DIRECTION ( 'NONE',  ( -0.5000000000000001110, 0.8660254037844385966, 0.000000000000000000 ) ) ;
#87 = CARTESIAN_POINT ( 'NONE',  ( -0.5935573392265015569, 0.7243558878000534440, 1.254439989159447322 ) ) ;
#88 = DIRECTION ( 'NONE',  ( 1.000000000000000000, 0.000000000000000000, -0.000000000000000000 ) ) ;
#89 = CC_DESIGN_APPROVAL ( #175, ( #236 ) ) ;
#90 = VECTOR ( 'NONE', #301, 39.37007874015748143 ) ;
#91 = CYLINDRICAL_SURFACE ( 'NONE', #339, 0.3937007874015748810 ) ;
#92 = VECTOR ( 'NONE', #499, 39.37007874015748143 ) ;
#93 = ADVANCED_FACE ( 'NONE', ( #503 ), #209, .T. ) ;
#94 = APPROVAL_STATUS ( 'not_yet_approved' ) ;
#95 = PLANE ( 'NONE',  #7 ) ;
#96 = PERSON_AND_ORGANIZATION_ROLE ( 'design_owner' ) ;
#97 = CARTESIAN_POINT ( 'NONE',  ( -0.7018105146995562427, 0.5368558878000536660, 2.254439989159447322 ) ) ;
#98 = PERSON_AND_ORGANIZATION ( #166, #398 ) ;
#99 = CC_DESIGN_APPROVAL ( #377, ( #368 ) ) ;
#100 = CARTESIAN_POINT ( 'NONE',  ( -0.7018105146995565757, 0.9118558878000536660, 2.254439989159447322 ) ) ;
#101 = EDGE_CURVE ( 'NONE', #286, #500, #406, .T. ) ;
#102 = VERTEX_POINT ( 'NONE', #87 ) ;
#103 = CIRCLE ( 'NONE', #67, 0.3937007874015747144 ) ;
#104 = CARTESIAN_POINT ( 'NONE',  ( -0.9183168656456660583, 0.9118558878000536660, 1.254439989159447322 ) ) ;
#105 = ORIENTED_EDGE ( 'NONE', *, *, #269, .T. ) ;
#106 = DATE_AND_TIME ( #336, #119 ) ;
#107 = DIRECTION ( 'NONE',  ( 0.000000000000000000, 0.000000000000000000, 1.000000000000000000 ) ) ;
#108 = CARTESIAN_POINT ( 'NONE',  ( -1.026570041118721077, 0.7243558878000535550, 2.254439989159447322 ) ) ;
#109 = VERTEX_POINT ( 'NONE', #173 ) ;
#110 = APPROVAL_PERSON_ORGANIZATION ( #98, #175, #305 ) ;
#111 = ADVANCED_FACE ( 'NONE', ( #510 ), #461, .T. ) ;
#112 = CARTESIAN_POINT ( 'NONE',  ( -0.8100636901726112615, 0.7243558878000534440, 1.254439989159447322 ) ) ;
#113 = ORIENTED_EDGE ( 'NONE', *, *, #259, .T. ) ;
#114 = DIRECTION ( 'NONE',  ( 0.7634990693313136179, -0.6458089277256996441, 0.000000000000000000 ) ) ;
#115 = ORIENTED_EDGE ( 'NONE', *, *, #486, .T. ) ;
#116 = FACE_OUTER_BOUND ( 'NONE', #196, .T. ) ;
#117 = ORIENTED_EDGE ( 'NONE', *, *, #300, .T. ) ;
#118 = ADVANCED_FACE ( 'NONE', ( #207 ), #91, .T. ) ;
#119 = LOCAL_TIME ( 10, 33, 27.00000000000000000, #56 ) ;
#120 = AXIS2_PLACEMENT_3D ( 'NONE', #429, #223, #183 ) ;
#121 = CARTESIAN_POINT ( 'NONE',  ( -0.8100636901726112615, 0.7243558878000535550, 2.254439989159447322 ) ) ;
#122 = VERTEX_POINT ( 'NONE', #64 ) ;
#123 = CARTESIAN_POINT ( 'NONE',  ( -1.191813224838268237, 1.047260351662903322, 1.254439989159447322 ) ) ;
#124 = PLANE ( 'NONE',  #222 ) ;
#125 =( NAMED_UNIT ( * ) SI_UNIT ( $, .STERADIAN. ) SOLID_ANGLE_UNIT ( ) );
#126 = CARTESIAN_POINT ( 'NONE',  ( -0.9183168656456660583, 0.5368558878000535550, 2.254439989159447322 ) ) ;
#127 = CARTESIAN_POINT ( 'NONE',  ( -1.026570041118721077, 0.7243558878000535550, 1.254439989159447322 ) ) ;
#128 = EDGE_LOOP ( 'NONE', ( #59, #39 ) ) ;
#129 = CARTESIAN_POINT ( 'NONE',  ( -1.026570041118721077, 0.7243558878000535550, 1.254439989159447322 ) ) ;
#130 = ORIENTED_EDGE ( 'NONE', *, *, #205, .F. ) ;
#131 =( NAMED_UNIT ( * ) PLANE_ANGLE_UNIT ( ) SI_UNIT ( $, .RADIAN. ) );
#132 = DIRECTION ( 'NONE',  ( -0.5000000000000000000, -0.8660254037844385966, 0.000000000000000000 ) ) ;
#133 = ADVANCED_FACE ( 'NONE', ( #348, #517 ), #485, .T. ) ;
#134 = DATE_TIME_ROLE ( 'classification_date' ) ;
#135 = DIRECTION ( 'NONE',  ( 0.7634990693313136179, -0.6458089277256996441, 0.000000000000000000 ) ) ;
#136 = DIRECTION ( 'NONE',  ( 1.000000000000000000, 0.000000000000000000, 0.000000000000000000 ) ) ;
#137 = CARTESIAN_POINT ( 'NONE',  ( -1.026570041118721077, 0.7243558878000535550, 2.254439989159447322 ) ) ;
#138 = VERTEX_POINT ( 'NONE', #104 ) ;
#139 = PERSON_AND_ORGANIZATION ( #166, #398 ) ;
#140 = CARTESIAN_POINT ( 'NONE',  ( -1.203764477574186254, 0.7243558878000535550, 2.254439989159447322 ) ) ;
#141 = EDGE_LOOP ( 'NONE', ( #63, #20 ) ) ;
#142 = EDGE_CURVE ( 'NONE', #224, #220, #176, .T. ) ;
#143 = DIRECTION ( 'NONE',  ( 0.000000000000000000, 0.000000000000000000, -1.000000000000000000 ) ) ;
#144 = AXIS2_PLACEMENT_3D ( 'NONE', #303, #143, #481 ) ;
#145 = CARTESIAN_POINT ( 'NONE',  ( -0.7018105146995562427, 0.5368558878000536660, 2.254439989159447322 ) ) ;
#146 = VERTEX_POINT ( 'NONE', #397 ) ;
#147 = DIRECTION ( 'NONE',  ( 0.000000000000000000, 0.000000000000000000, 1.000000000000000000 ) ) ;
#148 = VERTEX_POINT ( 'NONE', #433 ) ;
#149 = ADVANCED_FACE ( 'NONE', ( #55, #226 ), #257, .F. ) ;
#150 = LINE ( 'NONE', #312, #463 ) ;
#151 = EDGE_LOOP ( 'NONE', ( #234, #281, #515, #518, #73, #28 ) ) ;
#152 = CC_DESIGN_PERSON_AND_ORGANIZATION_ASSIGNMENT ( #302, #430, ( #236 ) ) ;
#153 = AXIS2_PLACEMENT_3D ( 'NONE', #208, #328, #508 ) ;
#154 = CARTESIAN_POINT ( 'NONE',  ( -1.191813224838268015, 1.047260351662903322, 1.254439989159447322 ) ) ;
#155 = ORIENTED_EDGE ( 'NONE', *, *, #60, .F. ) ;
#156 = ADVANCED_FACE ( 'NONE', ( #267 ), #436, .F. ) ;
#157 = CARTESIAN_POINT ( 'NONE',  ( -0.8100636901726112615, 0.7243558878000534440, 1.254439989159447322 ) ) ;
#158 = VERTEX_POINT ( 'NONE', #394 ) ;
#159 = CARTESIAN_POINT ( 'NONE',  ( -0.9183168656456660583, 0.9118558878000536660, 1.254439989159447322 ) ) ;
#160 = VERTEX_POINT ( 'NONE', #140 ) ;
#161 = CC_DESIGN_APPROVAL ( #452, ( #32 ) ) ;
#162 = FACE_BOUND ( 'NONE', #151, .T. ) ;
#163 = ORIENTED_EDGE ( 'NONE', *, *, #101, .T. ) ;
#164 = ORIENTED_EDGE ( 'NONE', *, *, #427, .F. ) ;
#165 = ADVANCED_FACE ( 'NONE', ( #181, #62 ), #95, .T. ) ;
#166 = PERSON ( 'UNSPECIFIED', 'UNSPECIFIED', 'UNSPECIFIED', ('UNSPECIFIED'), ('UNSPECIFIED'), ('UNSPECIFIED') ) ;
#167 = CARTESIAN_POINT ( 'NONE',  ( -0.4283141555069545636, 0.4014514239372035664, 1.254439989159447322 ) ) ;
#168 = FACE_OUTER_BOUND ( 'NONE', #84, .T. ) ;
#169 = AXIS2_PLACEMENT_3D ( 'NONE', #245, #422, #42 ) ;
#170 = LINE ( 'NONE', #48, #9 ) ;
#171 = CARTESIAN_POINT ( 'NONE',  ( -0.8100636901726112615, 0.7243558878000534440, 1.254439989159447322 ) ) ;
#172 = EDGE_CURVE ( 'NONE', #191, #498, #392, .T. ) ;
#173 = CARTESIAN_POINT ( 'NONE',  ( -1.110653874948719144, 0.9786113711566282181, 2.254439989159447322 ) ) ;
#174 = DIRECTION ( 'NONE',  ( 0.000000000000000000, 0.000000000000000000, 1.000000000000000000 ) ) ;
#175 = APPROVAL ( #383, 'UNSPECIFIED' ) ;
#176 = LINE ( 'NONE', #354, #505 ) ;
#177 = EDGE_LOOP ( 'NONE', ( #276, #373, #403, #388 ) ) ;
#178 = DATE_AND_TIME ( #258, #353 ) ;
#179 = CARTESIAN_POINT ( 'NONE',  ( -0.9183168656456660583, 0.5368558878000535550, 2.254439989159447322 ) ) ;
#180 = COORDINATED_UNIVERSAL_TIME_OFFSET ( 5, 0, .BEHIND. ) ;
#181 = FACE_OUTER_BOUND ( 'NONE', #252, .T. ) ;
#182 = COORDINATED_UNIVERSAL_TIME_OFFSET ( 5, 0, .BEHIND. ) ;
#183 = DIRECTION ( 'NONE',  ( 0.7634990693313136179, -0.6458089277256996441, 0.000000000000000000 ) ) ;
#184 = DIRECTION ( 'NONE',  ( 0.8660254037844385966, -0.5000000000000003331, 0.000000000000000000 ) ) ;
#185 = EDGE_CURVE ( 'NONE', #109, #5, #74, .T. ) ;
#186 = ORIENTED_EDGE ( 'NONE', *, *, #374, .T. ) ;
#187 = CARTESIAN_POINT ( 'NONE',  ( -0.7018105146995565757, 0.9118558878000536660, 2.254439989159447322 ) ) ;
#188 = ORIENTED_EDGE ( 'NONE', *, *, #300, .F. ) ;
#189 = LINE ( 'NONE', #123, #408 ) ;
#190 = LOCAL_TIME ( 10, 33, 27.00000000000000000, #225 ) ;
#191 = VERTEX_POINT ( 'NONE', #520 ) ;
#192 = CIRCLE ( 'NONE', #522, 0.3937007874015748254 ) ;
#193 = VECTOR ( 'NONE', #254, 39.37007874015748143 ) ;
#194 = EDGE_CURVE ( 'NONE', #18, #148, #23, .T. ) ;
#195 = DIRECTION ( 'NONE',  ( -0.5000000000000003331, 0.8660254037844383745, 0.000000000000000000 ) ) ;
#196 = EDGE_LOOP ( 'NONE', ( #164, #365, #541, #482 ) ) ;
#197 = DIRECTION ( 'NONE',  ( -0.8660254037844385966, -0.5000000000000001110, 0.000000000000000000 ) ) ;
#198 = ORIENTED_EDGE ( 'NONE', *, *, #287, .F. ) ;
#199 = LINE ( 'NONE', #381, #537 ) ;
#200 = VERTEX_POINT ( 'NONE', #399 ) ;
#201 = VECTOR ( 'NONE', #412, 39.37007874015748143 ) ;
#202 = AXIS2_PLACEMENT_3D ( 'NONE', #494, #364, #410 ) ;
#203 = CARTESIAN_POINT ( 'NONE',  ( -0.7018105146995562427, 0.5368558878000536660, 1.254439989159447322 ) ) ;
#204 = DIRECTION ( 'NONE',  ( -1.000000000000000000, 0.000000000000000000, 0.000000000000000000 ) ) ;
#205 = EDGE_CURVE ( 'NONE', #5, #109, #322, .T. ) ;
#206 = FACE_OUTER_BOUND ( 'NONE', #128, .T. ) ;
#207 = FACE_OUTER_BOUND ( 'NONE', #314, .T. ) ;
#208 = CARTESIAN_POINT ( 'NONE',  ( -0.8100636901726112615, 0.7243558878000534440, 1.254439989159447322 ) ) ;
#209 = PLANE ( 'NONE',  #462 ) ;
#210 = DIMENSIONAL_EXPONENTS ( 1.000000000000000000, 0.000000000000000000, 0.000000000000000000, 0.000000000000000000, 0.000000000000000000, 0.000000000000000000, 0.000000000000000000 ) ;
#211 = CC_DESIGN_SECURITY_CLASSIFICATION ( #368, ( #236 ) ) ;
#212 = EDGE_CURVE ( 'NONE', #476, #109, #14, .T. ) ;
#213 = VECTOR ( 'NONE', #341, 39.37007874015748143 ) ;
#214 = LINE ( 'NONE', #2, #330 ) ;
#215 = EDGE_CURVE ( 'NONE', #362, #534, #514, .T. ) ;
#216 = COORDINATED_UNIVERSAL_TIME_OFFSET ( 5, 0, .BEHIND. ) ;
#217 = EDGE_LOOP ( 'NONE', ( #155, #369, #115, #65 ) ) ;
#218 = DATE_AND_TIME ( #54, #538 ) ;
#219 = CARTESIAN_POINT ( 'NONE',  ( -0.8100636901726112615, 0.7243558878000534440, 2.254439989159447322 ) ) ;
#220 = VERTEX_POINT ( 'NONE', #475 ) ;
#221 = DIRECTION ( 'NONE',  ( 0.000000000000000000, 0.000000000000000000, 1.000000000000000000 ) ) ;
#222 = AXIS2_PLACEMENT_3D ( 'NONE', #421, #382, #132 ) ;
#223 = DIRECTION ( 'NONE',  ( 0.000000000000000000, 0.000000000000000000, -1.000000000000000000 ) ) ;
#224 = VERTEX_POINT ( 'NONE', #100 ) ;
#225 = COORDINATED_UNIVERSAL_TIME_OFFSET ( 5, 0, .BEHIND. ) ;
#226 = FACE_BOUND ( 'NONE', #77, .T. ) ;
#227 = DIRECTION ( 'NONE',  ( 1.000000000000000000, 0.000000000000000000, -0.000000000000000000 ) ) ;
#228 = EDGE_LOOP ( 'NONE', ( #465, #434, #415, #242, #279, #324 ) ) ;
#229 = EDGE_CURVE ( 'NONE', #191, #360, #264, .T. ) ;
#230 = DIRECTION ( 'NONE',  ( -0.000000000000000000, -0.000000000000000000, -1.000000000000000000 ) ) ;
#231 = DIRECTION ( 'NONE',  ( 0.5000000000000001110, -0.8660254037844385966, 0.000000000000000000 ) ) ;
#232 = ORIENTED_EDGE ( 'NONE', *, *, #239, .F. ) ;
#233 = PLANE ( 'NONE',  #263 ) ;
#234 = ORIENTED_EDGE ( 'NONE', *, *, #277, .T. ) ;
#235 = LINE ( 'NONE', #72, #82 ) ;
#236 = PRODUCT_DEFINITION_FORMATION_WITH_SPECIFIED_SOURCE ( 'ANY', '', #502, .NOT_KNOWN. ) ;
#237 = ORIENTED_EDGE ( 'NONE', *, *, #486, .F. ) ;
#238 = AXIS2_PLACEMENT_3D ( 'NONE', #11, #291, #467 ) ;
#239 = EDGE_CURVE ( 'NONE', #102, #220, #431, .T. ) ;
#240 = CIRCLE ( 'NONE', #380, 0.5000000000000000000 ) ;
#241 = FACE_OUTER_BOUND ( 'NONE', #529, .T. ) ;
#242 = ORIENTED_EDGE ( 'NONE', *, *, #259, .F. ) ;
#243 = LINE ( 'NONE', #443, #201 ) ;
#244 = ORIENTED_EDGE ( 'NONE', *, *, #215, .F. ) ;
#245 = CARTESIAN_POINT ( 'NONE',  ( -0.8100636901726112615, 0.7243558878000534440, 2.254439989159447322 ) ) ;
#246 = CYLINDRICAL_SURFACE ( 'NONE', #49, 0.3937007874015747144 ) ;
#247 = VECTOR ( 'NONE', #318, 39.37007874015748143 ) ;
#248 = CC_DESIGN_PERSON_AND_ORGANIZATION_ASSIGNMENT ( #474, #96, ( #502 ) ) ;
#249 = CARTESIAN_POINT ( 'NONE',  ( -0.7018105146995565757, 0.9118558878000536660, 2.254439989159447322 ) ) ;
#250 = VERTEX_POINT ( 'NONE', #179 ) ;
#251 = ADVANCED_FACE ( 'NONE', ( #345 ), #36, .T. ) ;
#252 = EDGE_LOOP ( 'NONE', ( #117, #105 ) ) ;
#253 = CARTESIAN_POINT ( 'NONE',  ( -1.110653874948719144, 0.9786113711566282181, 1.254439989159447322 ) ) ;
#254 = DIRECTION ( 'NONE',  ( -0.000000000000000000, -0.000000000000000000, -1.000000000000000000 ) ) ;
#255 = CARTESIAN_POINT ( 'NONE',  ( -0.8100636901726112615, 0.7243558878000535550, 2.254439989159447322 ) ) ;
#256 = APPROVAL_ROLE ( '' ) ;
#257 = PLANE ( 'NONE',  #144 ) ;
#258 = CALENDAR_DATE ( 2021, 26, 5 ) ;
#259 = EDGE_CURVE ( 'NONE', #362, #250, #235, .T. ) ;
#260 = DIRECTION ( 'NONE',  ( 0.5000000000000000000, 0.8660254037844385966, 0.000000000000000000 ) ) ;
#261 = CARTESIAN_POINT ( 'NONE',  ( 0.000000000000000000, 0.000000000000000000, 0.000000000000000000 ) ) ;
#262 = VECTOR ( 'NONE', #204, 39.37007874015748143 ) ;
#263 = AXIS2_PLACEMENT_3D ( 'NONE', #108, #274, #195 ) ;
#264 = LINE ( 'NONE', #97, #313 ) ;
#265 = ORIENTED_EDGE ( 'NONE', *, *, #269, .F. ) ;
#266 = APPROVAL_DATE_TIME ( #218, #377 ) ;
#267 = FACE_OUTER_BOUND ( 'NONE', #479, .T. ) ;
#268 = ORIENTED_EDGE ( 'NONE', *, *, #229, .T. ) ;
#269 = EDGE_CURVE ( 'NONE', #158, #160, #192, .T. ) ;
#270 = ADVANCED_BREP_SHAPE_REPRESENTATION ( 'am-4590 Sushi Roller 375 Hex Bore', ( #483, #468, #523 ), #450 ) ;
#271 = DIRECTION ( 'NONE',  ( 1.000000000000000000, 0.000000000000000000, 0.000000000000000000 ) ) ;
#272 = ORIENTED_EDGE ( 'NONE', *, *, #332, .T. ) ;
#273 = AXIS2_PLACEMENT_3D ( 'NONE', #288, #414, #88 ) ;
#274 = DIRECTION ( 'NONE',  ( 0.8660254037844384856, 0.5000000000000004441, -0.000000000000000000 ) ) ;
#275 = CLOSED_SHELL ( 'NONE', ( #3, #424, #133, #149, #343, #156 ) ) ;
#276 = ORIENTED_EDGE ( 'NONE', *, *, #352, .F. ) ;
#277 = EDGE_CURVE ( 'NONE', #498, #102, #46, .T. ) ;
#278 = DIRECTION ( 'NONE',  ( 0.000000000000000000, 0.000000000000000000, -1.000000000000000000 ) ) ;
#279 = ORIENTED_EDGE ( 'NONE', *, *, #363, .F. ) ;
#280 = CARTESIAN_POINT ( 'NONE',  ( -0.5094735053965037119, 0.4701004044434787810, 1.254439989159447322 ) ) ;
#281 = ORIENTED_EDGE ( 'NONE', *, *, #239, .T. ) ;
#282 = LINE ( 'NONE', #280, #489 ) ;
#283 = ORIENTED_EDGE ( 'NONE', *, *, #338, .F. ) ;
#284 = VECTOR ( 'NONE', #535, 39.37007874015748854 ) ;
#285 = DIRECTION ( 'NONE',  ( -0.000000000000000000, -0.000000000000000000, -1.000000000000000000 ) ) ;
#286 = VERTEX_POINT ( 'NONE', #154 ) ;
#287 = EDGE_CURVE ( 'NONE', #158, #18, #316, .T. ) ;
#288 = CARTESIAN_POINT ( 'NONE',  ( -0.8100636901726112615, 0.7243558878000535550, 1.254439989159447322 ) ) ;
#289 = LINE ( 'NONE', #469, #262 ) ;
#290 =( CONVERSION_BASED_UNIT ( 'INCH', #325 ) LENGTH_UNIT ( ) NAMED_UNIT ( #210 ) );
#291 = DIRECTION ( 'NONE',  ( 0.000000000000000000, 0.000000000000000000, -1.000000000000000000 ) ) ;
#292 = AXIS2_PLACEMENT_3D ( 'NONE', #249, #297, #44 ) ;
#293 = LINE ( 'NONE', #129, #92 ) ;
#294 = ORIENTED_EDGE ( 'NONE', *, *, #332, .F. ) ;
#295 = DIRECTION ( 'NONE',  ( -0.000000000000000000, -0.000000000000000000, -1.000000000000000000 ) ) ;
#296 = ORIENTED_EDGE ( 'NONE', *, *, #21, .F. ) ;
#297 = DIRECTION ( 'NONE',  ( 0.000000000000000000, -1.000000000000000000, 0.000000000000000000 ) ) ;
#298 = PERSON_AND_ORGANIZATION ( #166, #398 ) ;
#299 = DIRECTION ( 'NONE',  ( 0.000000000000000000, 0.000000000000000000, 1.000000000000000000 ) ) ;
#300 = EDGE_CURVE ( 'NONE', #160, #158, #351, .T. ) ;
#301 = DIRECTION ( 'NONE',  ( -0.000000000000000000, -0.000000000000000000, -1.000000000000000000 ) ) ;
#302 = PERSON_AND_ORGANIZATION ( #166, #398 ) ;
#303 = CARTESIAN_POINT ( 'NONE',  ( -0.8100636901726112615, 0.7243558878000534440, 2.254439989159447322 ) ) ;
#304 = ORIENTED_EDGE ( 'NONE', *, *, #212, .F. ) ;
#305 = APPROVAL_ROLE ( '' ) ;
#306 = VECTOR ( 'NONE', #387, 39.37007874015748143 ) ;
#307 = DIRECTION ( 'NONE',  ( 0.7634990693313136179, -0.6458089277256996441, 0.000000000000000000 ) ) ;
#308 = EDGE_CURVE ( 'NONE', #138, #534, #76, .T. ) ;
#309 = CARTESIAN_POINT ( 'NONE',  ( -0.8100636901726112615, 0.7243558878000535550, 1.254439989159447322 ) ) ;
#310 = DIRECTION ( 'NONE',  ( 0.000000000000000000, 0.000000000000000000, 1.000000000000000000 ) ) ;
#311 = ORIENTED_EDGE ( 'NONE', *, *, #363, .T. ) ;
#312 = CARTESIAN_POINT ( 'NONE',  ( -0.9183168656456660583, 0.5368558878000535550, 2.254439989159447322 ) ) ;
#313 = VECTOR ( 'NONE', #260, 39.37007874015748854 ) ;
#314 = EDGE_LOOP ( 'NONE', ( #198, #188, #349, #31 ) ) ;
#315 = CIRCLE ( 'NONE', #331, 0.3937007874015747144 ) ;
#316 = LINE ( 'NONE', #320, #247 ) ;
#317 = ORIENTED_EDGE ( 'NONE', *, *, #205, .T. ) ;
#318 = DIRECTION ( 'NONE',  ( -0.000000000000000000, -0.000000000000000000, -1.000000000000000000 ) ) ;
#319 = ORIENTED_EDGE ( 'NONE', *, *, #194, .T. ) ;
#320 = CARTESIAN_POINT ( 'NONE',  ( -0.4163629027710364916, 0.7243558878000535550, 2.254439989159447322 ) ) ;
#321 = ORIENTED_EDGE ( 'NONE', *, *, #346, .T. ) ;
#322 = CIRCLE ( 'NONE', #448, 0.3937007874015747144 ) ;
#323 = PLANE ( 'NONE',  #273 ) ;
#324 = ORIENTED_EDGE ( 'NONE', *, *, #374, .F. ) ;
#325 = LENGTH_MEASURE_WITH_UNIT ( LENGTH_MEASURE( 0.02539999999999999897 ), #83 );
#326 = DIRECTION ( 'NONE',  ( -0.000000000000000000, -0.000000000000000000, -1.000000000000000000 ) ) ;
#327 = ADVANCED_FACE ( 'NONE', ( #241 ), #528, .T. ) ;
#328 = DIRECTION ( 'NONE',  ( 0.000000000000000000, 0.000000000000000000, 1.000000000000000000 ) ) ;
#329 = CARTESIAN_POINT ( 'NONE',  ( -0.4163629027710364916, 0.7243558878000535550, 1.254439989159447322 ) ) ;
#330 = VECTOR ( 'NONE', #326, 39.37007874015748143 ) ;
#331 = AXIS2_PLACEMENT_3D ( 'NONE', #157, #278, #114 ) ;
#332 = EDGE_CURVE ( 'NONE', #496, #5, #282, .T. ) ;
#333 = DIRECTION ( 'NONE',  ( -3.154466349054401235E-16, 1.000000000000000000, 0.000000000000000000 ) ) ;
#334 = CARTESIAN_POINT ( 'NONE',  ( -0.8100636901726112615, 0.7243558878000534440, 2.254439989159447322 ) ) ;
#335 = CARTESIAN_POINT ( 'NONE',  ( -1.203764477574186254, 0.7243558878000535550, 2.254439989159447322 ) ) ;
#336 = CALENDAR_DATE ( 2021, 26, 5 ) ;
#337 = DIRECTION ( 'NONE',  ( 0.000000000000000000, 0.000000000000000000, -1.000000000000000000 ) ) ;
#338 = EDGE_CURVE ( 'NONE', #360, #102, #407, .T. ) ;
#339 = AXIS2_PLACEMENT_3D ( 'NONE', #255, #230, #19 ) ;
#340 = PERSON_AND_ORGANIZATION_ROLE ( 'creator' ) ;
#341 = DIRECTION ( 'NONE',  ( 0.000000000000000000, 0.000000000000000000, 1.000000000000000000 ) ) ;
#342 = EDGE_LOOP ( 'NONE', ( #521, #457, #186, #69 ) ) ;
#343 = ADVANCED_FACE ( 'NONE', ( #116 ), #497, .T. ) ;
#344 = CALENDAR_DATE ( 2021, 26, 5 ) ;
#345 = FACE_OUTER_BOUND ( 'NONE', #37, .T. ) ;
#346 = EDGE_CURVE ( 'NONE', #476, #496, #315, .T. ) ;
#347 = APPROVAL_DATE_TIME ( #178, #452 ) ;
#348 = FACE_OUTER_BOUND ( 'NONE', #79, .T. ) ;
#349 = ORIENTED_EDGE ( 'NONE', *, *, #21, .T. ) ;
#350 = DATE_AND_TIME ( #425, #512 ) ;
#351 = CIRCLE ( 'NONE', #202, 0.3937007874015748254 ) ;
#352 = EDGE_CURVE ( 'NONE', #200, #498, #243, .T. ) ;
#353 = LOCAL_TIME ( 10, 33, 27.00000000000000000, #180 ) ;
#354 = CARTESIAN_POINT ( 'NONE',  ( -0.7018105146995565757, 0.9118558878000536660, 2.254439989159447322 ) ) ;
#355 = CARTESIAN_POINT ( 'NONE',  ( -0.9183168656456660583, 0.9118558878000536660, 2.254439989159447322 ) ) ;
#356 = DIRECTION ( 'NONE',  ( -1.000000000000000000, 0.000000000000000000, 0.000000000000000000 ) ) ;
#357 = ORIENTED_EDGE ( 'NONE', *, *, #142, .T. ) ;
#358 = ADVANCED_FACE ( 'NONE', ( #487 ), #233, .T. ) ;
#359 = DIRECTION ( 'NONE',  ( -0.5000000000000002220, -0.8660254037844384856, 0.000000000000000000 ) ) ;
#360 = VERTEX_POINT ( 'NONE', #445 ) ;
#361 = CARTESIAN_POINT ( 'NONE',  ( -1.026570041118721077, 0.7243558878000535550, 2.254439989159447322 ) ) ;
#362 = VERTEX_POINT ( 'NONE', #361 ) ;
#363 = EDGE_CURVE ( 'NONE', #146, #362, #441, .T. ) ;
#364 = DIRECTION ( 'NONE',  ( 0.000000000000000000, 0.000000000000000000, 1.000000000000000000 ) ) ;
#365 = ORIENTED_EDGE ( 'NONE', *, *, #101, .F. ) ;
#366 = LINE ( 'NONE', #10, #371 ) ;
#367 = AXIS2_PLACEMENT_3D ( 'NONE', #80, #295, #378 ) ;
#368 = SECURITY_CLASSIFICATION ( '', '', #61 ) ;
#369 = ORIENTED_EDGE ( 'NONE', *, *, #427, .T. ) ;
#370 = AXIS2_PLACEMENT_3D ( 'NONE', #525, #22, #58 ) ;
#371 = VECTOR ( 'NONE', #86, 39.37007874015748143 ) ;
#372 = DIRECTION ( 'NONE',  ( 0.000000000000000000, 0.000000000000000000, -1.000000000000000000 ) ) ;
#373 = ORIENTED_EDGE ( 'NONE', *, *, #384, .F. ) ;
#374 = EDGE_CURVE ( 'NONE', #224, #146, #533, .T. ) ;
#375 = DIRECTION ( 'NONE',  ( 0.000000000000000000, 0.000000000000000000, 1.000000000000000000 ) ) ;
#376 = ORIENTED_EDGE ( 'NONE', *, *, #277, .F. ) ;
#377 = APPROVAL ( #94, 'UNSPECIFIED' ) ;
#378 = DIRECTION ( 'NONE',  ( -1.000000000000000000, 0.000000000000000000, 0.000000000000000000 ) ) ;
#379 = CARTESIAN_POINT ( 'NONE',  ( -0.8100636901726112615, 0.7243558878000535550, 1.254439989159447322 ) ) ;
#380 = AXIS2_PLACEMENT_3D ( 'NONE', #334, #372, #420 ) ;
#381 = CARTESIAN_POINT ( 'NONE',  ( -0.4283141555069545636, 0.4014514239372035664, 1.254439989159447322 ) ) ;
#382 = DIRECTION ( 'NONE',  ( -0.8660254037844387076, 0.5000000000000001110, 0.000000000000000000 ) ) ;
#383 = APPROVAL_STATUS ( 'not_yet_approved' ) ;
#384 = EDGE_CURVE ( 'NONE', #250, #200, #150, .T. ) ;
#385 = CARTESIAN_POINT ( 'NONE',  ( -0.8100636901726112615, 0.7243558878000534440, 1.254439989159447322 ) ) ;
#386 = SHAPE_DEFINITION_REPRESENTATION ( #417, #270 ) ;
#387 = DIRECTION ( 'NONE',  ( -0.000000000000000000, -0.000000000000000000, -1.000000000000000000 ) ) ;
#388 = ORIENTED_EDGE ( 'NONE', *, *, #172, .T. ) ;
#389 = CIRCLE ( 'NONE', #530, 0.5000000000000000000 ) ;
#390 = VECTOR ( 'NONE', #356, 39.37007874015748143 ) ;
#391 = PERSON_AND_ORGANIZATION ( #166, #398 ) ;
#392 = LINE ( 'NONE', #145, #306 ) ;
#393 = ORIENTED_EDGE ( 'NONE', *, *, #172, .F. ) ;
#394 = CARTESIAN_POINT ( 'NONE',  ( -0.4163629027710364916, 0.7243558878000535550, 2.254439989159447322 ) ) ;
#395 = CC_DESIGN_DATE_AND_TIME_ASSIGNMENT ( #106, #134, ( #368 ) ) ;
#396 = DATE_AND_TIME ( #344, #190 ) ;
#397 = CARTESIAN_POINT ( 'NONE',  ( -0.9183168656456660583, 0.9118558878000536660, 2.254439989159447322 ) ) ;
#398 = ORGANIZATION ( 'UNSPECIFIED', 'UNSPECIFIED', '' ) ;
#399 = CARTESIAN_POINT ( 'NONE',  ( -0.9183168656456660583, 0.5368558878000535550, 1.254439989159447322 ) ) ;
#400 = UNCERTAINTY_MEASURE_WITH_UNIT (LENGTH_MEASURE( 1.000000000000000082E-05 ), #290, 'distance_accuracy_value', 'NONE');
#401 = DIRECTION ( 'NONE',  ( -0.7634990693313137289, 0.6458089277256997551, 0.000000000000000000 ) ) ;
#402 = EDGE_CURVE ( 'NONE', #496, #476, #103, .T. ) ;
#403 = ORIENTED_EDGE ( 'NONE', *, *, #542, .T. ) ;
#404 = DIRECTION ( 'NONE',  ( 0.000000000000000000, 0.000000000000000000, -1.000000000000000000 ) ) ;
#405 = ORIENTED_EDGE ( 'NONE', *, *, #185, .F. ) ;
#406 = CIRCLE ( 'NONE', #238, 0.5000000000000000000 ) ;
#407 = LINE ( 'NONE', #34, #75 ) ;
#408 = VECTOR ( 'NONE', #464, 39.37007874015748143 ) ;
#409 = ORIENTED_EDGE ( 'NONE', *, *, #212, .T. ) ;
#410 = DIRECTION ( 'NONE',  ( 1.000000000000000000, 0.000000000000000000, 0.000000000000000000 ) ) ;
#411 = ORIENTED_EDGE ( 'NONE', *, *, #215, .T. ) ;
#412 = DIRECTION ( 'NONE',  ( 1.000000000000000000, 3.154466349054401728E-16, 0.000000000000000000 ) ) ;
#413 = ORIENTED_EDGE ( 'NONE', *, *, #402, .T. ) ;
#414 = DIRECTION ( 'NONE',  ( 0.000000000000000000, 0.000000000000000000, 1.000000000000000000 ) ) ;
#415 = ORIENTED_EDGE ( 'NONE', *, *, #542, .F. ) ;
#416 = AXIS2_PLACEMENT_3D ( 'NONE', #492, #197, #231 ) ;
#417 = PRODUCT_DEFINITION_SHAPE ( 'NONE', 'NONE',  #32 ) ;
#418 = DIRECTION ( 'NONE',  ( 1.000000000000000000, 0.000000000000000000, 0.000000000000000000 ) ) ;
#419 = EDGE_CURVE ( 'NONE', #286, #426, #189, .T. ) ;
#420 = DIRECTION ( 'NONE',  ( 0.7634990693313137289, -0.6458089277256995331, 0.000000000000000000 ) ) ;
#421 = CARTESIAN_POINT ( 'NONE',  ( -0.7018105146995562427, 0.5368558878000536660, 2.254439989159447322 ) ) ;
#422 = DIRECTION ( 'NONE',  ( 0.000000000000000000, 0.000000000000000000, -1.000000000000000000 ) ) ;
#423 = ORIENTED_EDGE ( 'NONE', *, *, #438, .F. ) ;
#424 = ADVANCED_FACE ( 'NONE', ( #466 ), #539, .T. ) ;
#425 = CALENDAR_DATE ( 2021, 26, 5 ) ;
#426 = VERTEX_POINT ( 'NONE', #459 ) ;
#427 = EDGE_CURVE ( 'NONE', #500, #122, #199, .T. ) ;
#428 = DATE_TIME_ROLE ( 'creation_date' ) ;
#429 = CARTESIAN_POINT ( 'NONE',  ( -0.8100636901726112615, 0.7243558878000534440, 1.254439989159447322 ) ) ;
#430 = PERSON_AND_ORGANIZATION_ROLE ( 'creator' ) ;
#431 = LINE ( 'NONE', #57, #507 ) ;
#432 = AXIS2_PLACEMENT_3D ( 'NONE', #219, #511, #307 ) ;
#433 = CARTESIAN_POINT ( 'NONE',  ( -1.203764477574186254, 0.7243558878000535550, 1.254439989159447322 ) ) ;
#434 = ORIENTED_EDGE ( 'NONE', *, *, #229, .F. ) ;
#435 = APPLICATION_PROTOCOL_DEFINITION ( 'international standard', 'config_control_design', 1994, #456 ) ;
#436 = CYLINDRICAL_SURFACE ( 'NONE', #370, 0.3937007874015747144 ) ;
#437 = DIRECTION ( 'NONE',  ( -0.000000000000000000, -0.000000000000000000, -1.000000000000000000 ) ) ;
#438 = EDGE_CURVE ( 'NONE', #534, #200, #293, .T. ) ;
#439 = CIRCLE ( 'NONE', #33, 0.3937007874015748254 ) ;
#440 = VECTOR ( 'NONE', #359, 39.37007874015749564 ) ;
#441 = LINE ( 'NONE', #68, #440 ) ;
#442 = ORIENTED_EDGE ( 'NONE', *, *, #338, .T. ) ;
#443 = CARTESIAN_POINT ( 'NONE',  ( -0.9183168656456660583, 0.5368558878000535550, 1.254439989159447322 ) ) ;
#444 = ORIENTED_EDGE ( 'NONE', *, *, #308, .F. ) ;
#445 = CARTESIAN_POINT ( 'NONE',  ( -0.5935573392265015569, 0.7243558878000534440, 2.254439989159447322 ) ) ;
#446 = EDGE_LOOP ( 'NONE', ( #376, #393, #268, #442 ) ) ;
#447 = EDGE_CURVE ( 'NONE', #360, #224, #366, .T. ) ;
#448 = AXIS2_PLACEMENT_3D ( 'NONE', #25, #337, #135 ) ;
#449 = DIRECTION ( 'NONE',  ( 0.000000000000000000, 0.000000000000000000, 1.000000000000000000 ) ) ;
#450 =( GEOMETRIC_REPRESENTATION_CONTEXT ( 3 ) GLOBAL_UNCERTAINTY_ASSIGNED_CONTEXT ( ( #400 ) ) GLOBAL_UNIT_ASSIGNED_CONTEXT ( ( #290, #131, #125 ) ) REPRESENTATION_CONTEXT ( 'NONE', 'WORKASPACE' ) );
#451 = ORIENTED_EDGE ( 'NONE', *, *, #45, .F. ) ;
#452 = APPROVAL ( #12, 'UNSPECIFIED' ) ;
#453 = CARTESIAN_POINT ( 'NONE',  ( -0.8100636901726112615, 0.7243558878000534440, 1.254439989159447322 ) ) ;
#454 = ORIENTED_EDGE ( 'NONE', *, *, #447, .T. ) ;
#455 = FACE_OUTER_BOUND ( 'NONE', #493, .T. ) ;
#456 = APPLICATION_CONTEXT ( 'configuration controlled 3d designs of mechanical parts and assemblies' ) ;
#457 = ORIENTED_EDGE ( 'NONE', *, *, #142, .F. ) ;
#458 = ADVANCED_FACE ( 'NONE', ( #206, #162 ), #323, .F. ) ;
#459 = CARTESIAN_POINT ( 'NONE',  ( -1.191813224838268015, 1.047260351662903322, 2.254439989159447322 ) ) ;
#460 = APPROVAL_PERSON_ORGANIZATION ( #524, #377, #16 ) ;
#461 = PLANE ( 'NONE',  #292 ) ;
#462 = AXIS2_PLACEMENT_3D ( 'NONE', #126, #333, #509 ) ;
#463 = VECTOR ( 'NONE', #490, 39.37007874015748143 ) ;
#464 = DIRECTION ( 'NONE',  ( 0.000000000000000000, 0.000000000000000000, 1.000000000000000000 ) ) ;
#465 = ORIENTED_EDGE ( 'NONE', *, *, #447, .F. ) ;
#466 = FACE_OUTER_BOUND ( 'NONE', #217, .T. ) ;
#467 = DIRECTION ( 'NONE',  ( 0.7634990693313137289, -0.6458089277256995331, 0.000000000000000000 ) ) ;
#468 = MANIFOLD_SOLID_BREP ( 'Sushi Overmold Slice hex spacer-1-solid1', #275 ) ;
#469 = CARTESIAN_POINT ( 'NONE',  ( -0.7018105146995565757, 0.9118558878000536660, 1.254439989159447322 ) ) ;
#470 = CC_DESIGN_PERSON_AND_ORGANIZATION_ASSIGNMENT ( #298, #471, ( #368 ) ) ;
#471 = PERSON_AND_ORGANIZATION_ROLE ( 'classification_officer' ) ;
#472 = CARTESIAN_POINT ( 'NONE',  ( -1.110653874948718922, 0.9786113711566279960, 1.254439989159447322 ) ) ;
#473 = ADVANCED_FACE ( 'NONE', ( #455 ), #4, .T. ) ;
#474 = PERSON_AND_ORGANIZATION ( #166, #398 ) ;
#475 = CARTESIAN_POINT ( 'NONE',  ( -0.7018105146995565757, 0.9118558878000536660, 1.254439989159447322 ) ) ;
#476 = VERTEX_POINT ( 'NONE', #253 ) ;
#477 = CC_DESIGN_PERSON_AND_ORGANIZATION_ASSIGNMENT ( #519, #516, ( #236 ) ) ;
#478 = CARTESIAN_POINT ( 'NONE',  ( -0.8100636901726112615, 0.7243558878000535550, 2.254439989159447322 ) ) ;
#479 = EDGE_LOOP ( 'NONE', ( #294, #413, #409, #130 ) ) ;
#480 = APPROVAL_DATE_TIME ( #396, #175 ) ;
#481 = DIRECTION ( 'NONE',  ( 0.7634990693313136179, -0.6458089277256996441, 0.000000000000000000 ) ) ;
#482 = ORIENTED_EDGE ( 'NONE', *, *, #526, .T. ) ;
#483 = MANIFOLD_SOLID_BREP ( 'am-3947-1000 375H x 1000IN Spacer-1-solid1', #66 ) ;
#484 = APPLICATION_PROTOCOL_DEFINITION ( 'international standard', 'config_control_design', 1994, #488 ) ;
#485 = PLANE ( 'NONE',  #120 ) ;
#486 = EDGE_CURVE ( 'NONE', #122, #426, #40, .T. ) ;
#487 = FACE_OUTER_BOUND ( 'NONE', #53, .T. ) ;
#488 = APPLICATION_CONTEXT ( 'configuration controlled 3d designs of mechanical parts and assemblies' ) ;
#489 = VECTOR ( 'NONE', #147, 39.37007874015748143 ) ;
#490 = DIRECTION ( 'NONE',  ( -0.000000000000000000, -0.000000000000000000, -1.000000000000000000 ) ) ;
#491 = ORIENTED_EDGE ( 'NONE', *, *, #526, .F. ) ;
#492 = CARTESIAN_POINT ( 'NONE',  ( -0.5935573392265015569, 0.7243558878000534440, 2.254439989159447322 ) ) ;
#493 = EDGE_LOOP ( 'NONE', ( #265, #532, #319, #296 ) ) ;
#494 = CARTESIAN_POINT ( 'NONE',  ( -0.8100636901726112615, 0.7243558878000535550, 2.254439989159447322 ) ) ;
#495 = CC_DESIGN_DATE_AND_TIME_ASSIGNMENT ( #350, #428, ( #32 ) ) ;
#496 = VERTEX_POINT ( 'NONE', #504 ) ;
#497 = CYLINDRICAL_SURFACE ( 'NONE', #540, 0.5000000000000000000 ) ;
#498 = VERTEX_POINT ( 'NONE', #203 ) ;
#499 = DIRECTION ( 'NONE',  ( 0.5000000000000003331, -0.8660254037844383745, 0.000000000000000000 ) ) ;
#500 = VERTEX_POINT ( 'NONE', #167 ) ;
#501 = DESIGN_CONTEXT ( 'detailed design', #488, 'design' ) ;
#502 = PRODUCT ( 'am-4590 Sushi Roller 375 Hex Bore', 'am-4590 Sushi Roller 375 Hex Bore', '', ( #52 ) ) ;
#503 = FACE_OUTER_BOUND ( 'NONE', #177, .T. ) ;
#504 = CARTESIAN_POINT ( 'NONE',  ( -0.5094735053965036009, 0.4701004044434787255, 1.254439989159447322 ) ) ;
#505 = VECTOR ( 'NONE', #437, 39.37007874015748143 ) ;
#506 = LINE ( 'NONE', #335, #193 ) ;
#507 = VECTOR ( 'NONE', #17, 39.37007874015748143 ) ;
#508 = DIRECTION ( 'NONE',  ( -0.7634990693313137289, 0.6458089277256997551, 0.000000000000000000 ) ) ;
#509 = DIRECTION ( 'NONE',  ( -1.000000000000000000, -3.154466349054401235E-16, 0.000000000000000000 ) ) ;
#510 = FACE_OUTER_BOUND ( 'NONE', #342, .T. ) ;
#511 = DIRECTION ( 'NONE',  ( 0.000000000000000000, 0.000000000000000000, -1.000000000000000000 ) ) ;
#512 = LOCAL_TIME ( 10, 33, 27.00000000000000000, #216 ) ;
#513 = VECTOR ( 'NONE', #70, 39.37007874015749564 ) ;
#514 = LINE ( 'NONE', #137, #90 ) ;
#515 = ORIENTED_EDGE ( 'NONE', *, *, #38, .T. ) ;
#516 = PERSON_AND_ORGANIZATION_ROLE ( 'design_supplier' ) ;
#517 = FACE_BOUND ( 'NONE', #141, .T. ) ;
#518 = ORIENTED_EDGE ( 'NONE', *, *, #308, .T. ) ;
#519 = PERSON_AND_ORGANIZATION ( #166, #398 ) ;
#520 = CARTESIAN_POINT ( 'NONE',  ( -0.7018105146995562427, 0.5368558878000536660, 2.254439989159447322 ) ) ;
#521 = ORIENTED_EDGE ( 'NONE', *, *, #38, .F. ) ;
#522 = AXIS2_PLACEMENT_3D ( 'NONE', #121, #449, #78 ) ;
#523 = AXIS2_PLACEMENT_3D ( 'NONE', #261, #221, #136 ) ;
#524 = PERSON_AND_ORGANIZATION ( #166, #398 ) ;
#525 = CARTESIAN_POINT ( 'NONE',  ( -0.8100636901726112615, 0.7243558878000534440, 1.254439989159447322 ) ) ;
#526 = EDGE_CURVE ( 'NONE', #426, #122, #240, .T. ) ;
#527 = CARTESIAN_POINT ( 'NONE',  ( -0.7018105146995562427, 0.5368558878000536660, 1.254439989159447322 ) ) ;
#528 = PLANE ( 'NONE',  #416 ) ;
#529 = EDGE_LOOP ( 'NONE', ( #232, #283, #454, #357 ) ) ;
#530 = AXIS2_PLACEMENT_3D ( 'NONE', #171, #85, #8 ) ;
#531 = DIRECTION ( 'NONE',  ( 0.5000000000000003331, -0.8660254037844383745, 0.000000000000000000 ) ) ;
#532 = ORIENTED_EDGE ( 'NONE', *, *, #287, .T. ) ;
#533 = LINE ( 'NONE', #187, #390 ) ;
#534 = VERTEX_POINT ( 'NONE', #127 ) ;
#535 = DIRECTION ( 'NONE',  ( 0.5000000000000000000, 0.8660254037844385966, 0.000000000000000000 ) ) ;
#536 = ORIENTED_EDGE ( 'NONE', *, *, #60, .T. ) ;
#537 = VECTOR ( 'NONE', #375, 39.37007874015748143 ) ;
#538 = LOCAL_TIME ( 10, 33, 27.00000000000000000, #182 ) ;
#539 = CYLINDRICAL_SURFACE ( 'NONE', #153, 0.5000000000000000000 ) ;
#540 = AXIS2_PLACEMENT_3D ( 'NONE', #453, #310, #401 ) ;
#541 = ORIENTED_EDGE ( 'NONE', *, *, #419, .T. ) ;
#542 = EDGE_CURVE ( 'NONE', #250, #191, #170, .T. ) ;
ENDSEC;
END-ISO-10303-21;
